<?xml version="1.0" encoding="UTF-8" standalone="no"?>
<!DOCTYPE svg PUBLIC "-//W3C//DTD SVG 1.1//EN"
 "http://www.w3.org/Graphics/SVG/1.1/DTD/svg11.dtd">
<!-- Generated by graphviz version 3.0.0 (20220226.1711)
 -->
<!-- Pages: 1 -->
<svg width="279pt" height="545pt"
 viewBox="0.00 0.00 279.00 544.58" xmlns="http://www.w3.org/2000/svg" xmlns:xlink="http://www.w3.org/1999/xlink">
<g id="graph0" class="graph" transform="scale(1 1) rotate(0) translate(4 540.58)">
<polygon fill="white" stroke="transparent" points="-4,4 -4,-540.58 275,-540.58 275,4 -4,4"/>
<!-- [] -->
<g id="node1" class="node">
<title>[]</title>
<ellipse fill="none" stroke="black" cx="95" cy="-18" rx="27" ry="18"/>
<text text-anchor="middle" x="95" y="-14.3" font-family="Times,serif" font-size="14.00">[]</text>
</g>
<!-- []&#45;&gt;[] -->
<g id="edge6" class="edge">
<title>[]&#45;&gt;[]</title>
<path fill="none" stroke="black" d="M119.53,-25.75C130.51,-26.49 140,-23.91 140,-18 140,-14.03 135.72,-11.56 129.57,-10.59"/>
<polygon fill="black" stroke="black" points="129.65,-7.09 119.53,-10.25 129.41,-14.09 129.65,-7.09"/>
<text text-anchor="middle" x="157" y="-14.3" font-family="Times,serif" font-size="14.00">a, b, c</text>
</g>
<!-- [&#39;q2&#39;] -->
<g id="node2" class="node">
<title>[&#39;q2&#39;]</title>
<ellipse fill="none" stroke="black" cx="61" cy="-518.58" rx="28.7" ry="18"/>
<text text-anchor="middle" x="61" y="-514.88" font-family="Times,serif" font-size="14.00">[&#39;q2&#39;]</text>
</g>
<!-- [&#39;q2&#39;]&#45;&gt;[] -->
<g id="edge9" class="edge">
<title>[&#39;q2&#39;]&#45;&gt;[]</title>
<path fill="none" stroke="black" d="M47.16,-502.79C29.16,-481.94 0,-441.97 0,-401.73 0,-401.73 0,-401.73 0,-118.6 0,-80.38 37.07,-51.05 64.9,-34.41"/>
<polygon fill="black" stroke="black" points="66.97,-37.26 73.92,-29.26 63.5,-31.18 66.97,-37.26"/>
<text text-anchor="middle" x="10.5" y="-248.34" font-family="Times,serif" font-size="14.00">a, b</text>
</g>
<!-- [&#39;q3&#39;] -->
<g id="node5" class="node">
<title>[&#39;q3&#39;]</title>
<ellipse fill="none" stroke="black" cx="61" cy="-400.73" rx="28.68" ry="28.68"/>
<ellipse fill="none" stroke="black" cx="61" cy="-400.73" rx="32.7" ry="32.7"/>
<text text-anchor="middle" x="61" y="-397.03" font-family="Times,serif" font-size="14.00">[&#39;q3&#39;]</text>
</g>
<!-- [&#39;q2&#39;]&#45;&gt;[&#39;q3&#39;] -->
<g id="edge10" class="edge">
<title>[&#39;q2&#39;]&#45;&gt;[&#39;q3&#39;]</title>
<path fill="none" stroke="black" d="M61,-500.49C61,-485.55 61,-463.24 61,-443.6"/>
<polygon fill="black" stroke="black" points="64.5,-443.33 61,-433.33 57.5,-443.33 64.5,-443.33"/>
<text text-anchor="middle" x="64.5" y="-471.38" font-family="Times,serif" font-size="14.00">c</text>
</g>
<!-- [&#39;q4&#39;] -->
<g id="node3" class="node">
<title>[&#39;q4&#39;]</title>
<ellipse fill="none" stroke="black" cx="153" cy="-119.6" rx="28.68" ry="28.68"/>
<ellipse fill="none" stroke="black" cx="153" cy="-119.6" rx="32.7" ry="32.7"/>
<text text-anchor="middle" x="153" y="-115.9" font-family="Times,serif" font-size="14.00">[&#39;q4&#39;]</text>
</g>
<!-- [&#39;q4&#39;]&#45;&gt;[] -->
<g id="edge8" class="edge">
<title>[&#39;q4&#39;]&#45;&gt;[]</title>
<path fill="none" stroke="black" d="M137,-91.12C128.42,-76.38 117.92,-58.36 109.57,-44.01"/>
<polygon fill="black" stroke="black" points="112.49,-42.07 104.43,-35.19 106.44,-45.6 112.49,-42.07"/>
<text text-anchor="middle" x="134.5" y="-57.8" font-family="Times,serif" font-size="14.00">b, c</text>
</g>
<!-- [&#39;q4&#39;]&#45;&gt;[&#39;q4&#39;] -->
<g id="edge7" class="edge">
<title>[&#39;q4&#39;]&#45;&gt;[&#39;q4&#39;]</title>
<path fill="none" stroke="black" d="M184.13,-130.47C194.9,-130.58 203.6,-126.96 203.6,-119.6 203.6,-114.77 199.85,-111.54 194.23,-109.93"/>
<polygon fill="black" stroke="black" points="194.47,-106.44 184.13,-108.73 193.64,-113.39 194.47,-106.44"/>
<text text-anchor="middle" x="207.1" y="-115.9" font-family="Times,serif" font-size="14.00">a</text>
</g>
<!-- [&#39;q1&#39;, &#39;q4&#39;] -->
<g id="node4" class="node">
<title>[&#39;q1&#39;, &#39;q4&#39;]</title>
<ellipse fill="none" stroke="black" cx="130" cy="-252.04" rx="44.71" ry="44.71"/>
<ellipse fill="none" stroke="black" cx="130" cy="-252.04" rx="48.69" ry="48.69"/>
<text text-anchor="middle" x="130" y="-248.34" font-family="Times,serif" font-size="14.00">[&#39;q1&#39;, &#39;q4&#39;]</text>
</g>
<!-- [&#39;q1&#39;, &#39;q4&#39;]&#45;&gt;[] -->
<g id="edge5" class="edge">
<title>[&#39;q1&#39;, &#39;q4&#39;]&#45;&gt;[]</title>
<path fill="none" stroke="black" d="M116,-205.17C111.46,-188.62 106.87,-169.71 104,-152.19 98.07,-116.01 96.04,-73.68 95.34,-46.62"/>
<polygon fill="black" stroke="black" points="98.84,-46.29 95.13,-36.36 91.84,-46.43 98.84,-46.29"/>
<text text-anchor="middle" x="107.5" y="-115.9" font-family="Times,serif" font-size="14.00">c</text>
</g>
<!-- [&#39;q1&#39;, &#39;q4&#39;]&#45;&gt;[&#39;q2&#39;] -->
<g id="edge4" class="edge">
<title>[&#39;q1&#39;, &#39;q4&#39;]&#45;&gt;[&#39;q2&#39;]</title>
<path fill="none" stroke="black" d="M128.93,-301.22C126.74,-341.84 120.47,-400.96 103,-449.58 97.37,-465.24 87.81,-481.14 79.22,-493.63"/>
<polygon fill="black" stroke="black" points="76.16,-491.89 73.21,-502.07 81.87,-495.95 76.16,-491.89"/>
<text text-anchor="middle" x="128.5" y="-397.03" font-family="Times,serif" font-size="14.00">b</text>
</g>
<!-- [&#39;q1&#39;, &#39;q4&#39;]&#45;&gt;[&#39;q4&#39;] -->
<g id="edge3" class="edge">
<title>[&#39;q1&#39;, &#39;q4&#39;]&#45;&gt;[&#39;q4&#39;]</title>
<path fill="none" stroke="black" d="M138.37,-203.58C140.76,-190.01 143.35,-175.34 145.67,-162.16"/>
<polygon fill="black" stroke="black" points="149.18,-162.41 147.47,-151.95 142.29,-161.19 149.18,-162.41"/>
<text text-anchor="middle" x="148.5" y="-173.99" font-family="Times,serif" font-size="14.00">a</text>
</g>
<!-- [&#39;q3&#39;]&#45;&gt;[] -->
<g id="edge12" class="edge">
<title>[&#39;q3&#39;]&#45;&gt;[]</title>
<path fill="none" stroke="black" d="M62.11,-368.03C63.62,-329.14 66.76,-261.23 72,-203.19 77.04,-147.35 85.86,-82.32 90.98,-46.4"/>
<polygon fill="black" stroke="black" points="94.49,-46.62 92.45,-36.23 87.56,-45.62 94.49,-46.62"/>
<text text-anchor="middle" x="86.5" y="-173.99" font-family="Times,serif" font-size="14.00">b, c</text>
</g>
<!-- [&#39;q3&#39;]&#45;&gt;[&#39;q1&#39;, &#39;q4&#39;] -->
<g id="edge11" class="edge">
<title>[&#39;q3&#39;]&#45;&gt;[&#39;q1&#39;, &#39;q4&#39;]</title>
<path fill="none" stroke="black" d="M74.63,-370.75C83.36,-352.19 94.94,-327.57 105.26,-305.64"/>
<polygon fill="black" stroke="black" points="108.5,-306.97 109.59,-296.43 102.17,-303.99 108.5,-306.97"/>
<text text-anchor="middle" x="101.5" y="-322.69" font-family="Times,serif" font-size="14.00">a</text>
</g>
<!-- [&#39;q0&#39;, &#39;q3&#39;] -->
<g id="node6" class="node">
<title>[&#39;q0&#39;, &#39;q3&#39;]</title>
<ellipse fill="aquamarine" stroke="aquamarine" cx="222" cy="-400.73" rx="44.71" ry="44.71"/>
<ellipse fill="none" stroke="aquamarine" cx="222" cy="-400.73" rx="48.69" ry="48.69"/>
<text text-anchor="middle" x="222" y="-397.03" font-family="Times,serif" font-size="14.00">[&#39;q0&#39;, &#39;q3&#39;]</text>
</g>
<!-- [&#39;q0&#39;, &#39;q3&#39;]&#45;&gt;[] -->
<g id="edge2" class="edge">
<title>[&#39;q0&#39;, &#39;q3&#39;]&#45;&gt;[]</title>
<path fill="none" stroke="black" d="M235.32,-353.69C251.17,-289.06 269.72,-170.04 220,-87 200.56,-54.53 159.63,-36.57 129.89,-27.38"/>
<polygon fill="black" stroke="black" points="130.85,-24.02 120.28,-24.6 128.9,-30.74 130.85,-24.02"/>
<text text-anchor="middle" x="260.5" y="-173.99" font-family="Times,serif" font-size="14.00">b, c</text>
</g>
<!-- [&#39;q0&#39;, &#39;q3&#39;]&#45;&gt;[&#39;q1&#39;, &#39;q4&#39;] -->
<g id="edge1" class="edge">
<title>[&#39;q0&#39;, &#39;q3&#39;]&#45;&gt;[&#39;q1&#39;, &#39;q4&#39;]</title>
<path fill="none" stroke="black" d="M196.37,-358.87C185.45,-341.46 172.61,-320.99 161.15,-302.71"/>
<polygon fill="black" stroke="black" points="163.93,-300.55 155.65,-293.94 158,-304.27 163.93,-300.55"/>
<text text-anchor="middle" x="182.5" y="-322.69" font-family="Times,serif" font-size="14.00">a</text>
</g>
</g>
</svg>
