<?xml version="1.0" encoding="UTF-8" standalone="no"?>
<!DOCTYPE svg PUBLIC "-//W3C//DTD SVG 1.1//EN"
 "http://www.w3.org/Graphics/SVG/1.1/DTD/svg11.dtd">
<!-- Generated by graphviz version 3.0.0 (20220226.1711)
 -->
<!-- Pages: 1 -->
<svg width="223pt" height="545pt"
 viewBox="0.00 0.00 222.60 544.58" xmlns="http://www.w3.org/2000/svg" xmlns:xlink="http://www.w3.org/1999/xlink">
<g id="graph0" class="graph" transform="scale(1 1) rotate(0) translate(4 540.58)">
<polygon fill="white" stroke="transparent" points="-4,4 -4,-540.58 218.6,-540.58 218.6,4 -4,4"/>
<!-- [] -->
<g id="node1" class="node">
<title>[]</title>
<ellipse fill="none" stroke="black" cx="76" cy="-18" rx="27" ry="18"/>
<text text-anchor="middle" x="76" y="-14.3" font-family="Times,serif" font-size="14.00">[]</text>
</g>
<!-- []&#45;&gt;[] -->
<g id="edge6" class="edge">
<title>[]&#45;&gt;[]</title>
<path fill="none" stroke="black" d="M100.53,-25.75C111.51,-26.49 121,-23.91 121,-18 121,-14.03 116.72,-11.56 110.57,-10.59"/>
<polygon fill="black" stroke="black" points="110.65,-7.09 100.53,-10.25 110.41,-14.09 110.65,-7.09"/>
<text text-anchor="middle" x="138" y="-14.3" font-family="Times,serif" font-size="14.00">a, b, c</text>
</g>
<!-- [&#39;q2&#39;] -->
<g id="node2" class="node">
<title>[&#39;q2&#39;]</title>
<ellipse fill="none" stroke="black" cx="77" cy="-518.58" rx="28.7" ry="18"/>
<text text-anchor="middle" x="77" y="-514.88" font-family="Times,serif" font-size="14.00">[&#39;q2&#39;]</text>
</g>
<!-- [&#39;q2&#39;]&#45;&gt;[] -->
<g id="edge9" class="edge">
<title>[&#39;q2&#39;]&#45;&gt;[]</title>
<path fill="none" stroke="black" d="M59.91,-503.84C37.23,-483.93 0,-444.72 0,-401.73 0,-401.73 0,-401.73 0,-118.6 0,-85.04 27.61,-55.75 49.54,-37.78"/>
<polygon fill="black" stroke="black" points="51.89,-40.39 57.6,-31.46 47.57,-34.88 51.89,-40.39"/>
<text text-anchor="middle" x="10.5" y="-248.34" font-family="Times,serif" font-size="14.00">a, b</text>
</g>
<!-- [&#39;q0&#39;, &#39;q3&#39;] -->
<g id="node5" class="node">
<title>[&#39;q0&#39;, &#39;q3&#39;]</title>
<ellipse fill="aquamarine" stroke="aquamarine" cx="77" cy="-400.73" rx="44.71" ry="44.71"/>
<ellipse fill="none" stroke="aquamarine" cx="77" cy="-400.73" rx="48.69" ry="48.69"/>
<text text-anchor="middle" x="77" y="-397.03" font-family="Times,serif" font-size="14.00">[&#39;q0&#39;, &#39;q3&#39;]</text>
</g>
<!-- [&#39;q2&#39;]&#45;&gt;[&#39;q0&#39;, &#39;q3&#39;] -->
<g id="edge10" class="edge">
<title>[&#39;q2&#39;]&#45;&gt;[&#39;q0&#39;, &#39;q3&#39;]</title>
<path fill="none" stroke="black" d="M77,-500.49C77,-489.59 77,-474.78 77,-459.94"/>
<polygon fill="black" stroke="black" points="80.5,-459.72 77,-449.72 73.5,-459.72 80.5,-459.72"/>
<text text-anchor="middle" x="80.5" y="-471.38" font-family="Times,serif" font-size="14.00">c</text>
</g>
<!-- [&#39;q4&#39;] -->
<g id="node3" class="node">
<title>[&#39;q4&#39;]</title>
<ellipse fill="none" stroke="black" cx="157" cy="-119.6" rx="28.68" ry="28.68"/>
<ellipse fill="none" stroke="black" cx="157" cy="-119.6" rx="32.7" ry="32.7"/>
<text text-anchor="middle" x="157" y="-115.9" font-family="Times,serif" font-size="14.00">[&#39;q4&#39;]</text>
</g>
<!-- [&#39;q4&#39;]&#45;&gt;[] -->
<g id="edge8" class="edge">
<title>[&#39;q4&#39;]&#45;&gt;[]</title>
<path fill="none" stroke="black" d="M140.25,-91.26C132.51,-79.38 122.86,-65.57 113,-54 108.79,-49.05 103.94,-44.06 99.18,-39.46"/>
<polygon fill="black" stroke="black" points="101.55,-36.88 91.85,-32.61 96.77,-42 101.55,-36.88"/>
<text text-anchor="middle" x="134.5" y="-57.8" font-family="Times,serif" font-size="14.00">b, c</text>
</g>
<!-- [&#39;q4&#39;]&#45;&gt;[&#39;q4&#39;] -->
<g id="edge7" class="edge">
<title>[&#39;q4&#39;]&#45;&gt;[&#39;q4&#39;]</title>
<path fill="none" stroke="black" d="M188.13,-130.47C198.9,-130.58 207.6,-126.96 207.6,-119.6 207.6,-114.77 203.85,-111.54 198.23,-109.93"/>
<polygon fill="black" stroke="black" points="198.47,-106.44 188.13,-108.73 197.64,-113.39 198.47,-106.44"/>
<text text-anchor="middle" x="211.1" y="-115.9" font-family="Times,serif" font-size="14.00">a</text>
</g>
<!-- [&#39;q1&#39;, &#39;q4&#39;] -->
<g id="node4" class="node">
<title>[&#39;q1&#39;, &#39;q4&#39;]</title>
<ellipse fill="none" stroke="black" cx="138" cy="-252.04" rx="44.71" ry="44.71"/>
<ellipse fill="none" stroke="black" cx="138" cy="-252.04" rx="48.69" ry="48.69"/>
<text text-anchor="middle" x="138" y="-248.34" font-family="Times,serif" font-size="14.00">[&#39;q1&#39;, &#39;q4&#39;]</text>
</g>
<!-- [&#39;q1&#39;, &#39;q4&#39;]&#45;&gt;[] -->
<g id="edge5" class="edge">
<title>[&#39;q1&#39;, &#39;q4&#39;]&#45;&gt;[]</title>
<path fill="none" stroke="black" d="M123.39,-204.94C118.31,-188.37 112.7,-169.5 108,-152.19 98.04,-115.52 88.05,-72.74 81.94,-45.76"/>
<polygon fill="black" stroke="black" points="85.33,-44.89 79.73,-35.9 78.5,-46.43 85.33,-44.89"/>
<text text-anchor="middle" x="111.5" y="-115.9" font-family="Times,serif" font-size="14.00">c</text>
</g>
<!-- [&#39;q1&#39;, &#39;q4&#39;]&#45;&gt;[&#39;q2&#39;] -->
<g id="edge4" class="edge">
<title>[&#39;q1&#39;, &#39;q4&#39;]&#45;&gt;[&#39;q2&#39;]</title>
<path fill="none" stroke="black" d="M146.03,-300.37C150.95,-341.26 153.25,-401.21 135,-449.58 128.11,-467.85 113.97,-484.6 101.38,-496.9"/>
<polygon fill="black" stroke="black" points="98.74,-494.57 93.82,-503.96 103.52,-499.69 98.74,-494.57"/>
<text text-anchor="middle" x="153.5" y="-397.03" font-family="Times,serif" font-size="14.00">b</text>
</g>
<!-- [&#39;q1&#39;, &#39;q4&#39;]&#45;&gt;[&#39;q4&#39;] -->
<g id="edge3" class="edge">
<title>[&#39;q1&#39;, &#39;q4&#39;]&#45;&gt;[&#39;q4&#39;]</title>
<path fill="none" stroke="black" d="M144.91,-203.58C146.89,-190.01 149.03,-175.34 150.95,-162.16"/>
<polygon fill="black" stroke="black" points="154.45,-162.35 152.43,-151.95 147.53,-161.34 154.45,-162.35"/>
<text text-anchor="middle" x="153.5" y="-173.99" font-family="Times,serif" font-size="14.00">a</text>
</g>
<!-- [&#39;q0&#39;, &#39;q3&#39;]&#45;&gt;[] -->
<g id="edge2" class="edge">
<title>[&#39;q0&#39;, &#39;q3&#39;]&#45;&gt;[]</title>
<path fill="none" stroke="black" d="M76.87,-351.51C76.66,-270.74 76.24,-110.66 76.07,-46.52"/>
<polygon fill="black" stroke="black" points="79.57,-46.38 76.05,-36.39 72.57,-46.4 79.57,-46.38"/>
<text text-anchor="middle" x="87.5" y="-173.99" font-family="Times,serif" font-size="14.00">b, c</text>
</g>
<!-- [&#39;q0&#39;, &#39;q3&#39;]&#45;&gt;[&#39;q1&#39;, &#39;q4&#39;] -->
<g id="edge1" class="edge">
<title>[&#39;q0&#39;, &#39;q3&#39;]&#45;&gt;[&#39;q1&#39;, &#39;q4&#39;]</title>
<path fill="none" stroke="black" d="M95.47,-355.32C101.86,-339.96 109.09,-322.57 115.75,-306.55"/>
<polygon fill="black" stroke="black" points="118.99,-307.88 119.6,-297.3 112.52,-305.19 118.99,-307.88"/>
<text text-anchor="middle" x="113.5" y="-322.69" font-family="Times,serif" font-size="14.00">a</text>
</g>
</g>
</svg>
