<?xml version="1.0" encoding="UTF-8" standalone="no"?>
<!DOCTYPE svg PUBLIC "-//W3C//DTD SVG 1.1//EN"
 "http://www.w3.org/Graphics/SVG/1.1/DTD/svg11.dtd">
<!-- Generated by graphviz version 3.0.0 (20220226.1711)
 -->
<!-- Pages: 1 -->
<svg width="156pt" height="417pt"
 viewBox="0.00 0.00 156.00 416.99" xmlns="http://www.w3.org/2000/svg" xmlns:xlink="http://www.w3.org/1999/xlink">
<g id="graph0" class="graph" transform="scale(1 1) rotate(0) translate(4 412.99)">
<polygon fill="white" stroke="transparent" points="-4,4 -4,-412.99 152,-412.99 152,4 -4,4"/>
<!-- q1 -->
<g id="node1" class="node">
<title>q1</title>
<ellipse fill="none" stroke="black" cx="70" cy="-300.99" rx="27" ry="18"/>
<text text-anchor="middle" x="70" y="-297.29" font-family="Times,serif" font-size="14.00">q1</text>
</g>
<!-- q2 -->
<g id="node2" class="node">
<title>q2</title>
<ellipse fill="none" stroke="black" cx="27" cy="-213.99" rx="27" ry="18"/>
<text text-anchor="middle" x="27" y="-210.29" font-family="Times,serif" font-size="14.00">q2</text>
</g>
<!-- q1&#45;&gt;q2 -->
<g id="edge3" class="edge">
<title>q1&#45;&gt;q2</title>
<path fill="none" stroke="black" d="M61.71,-283.6C55.52,-271.37 46.95,-254.44 39.88,-240.45"/>
<polygon fill="black" stroke="black" points="42.9,-238.67 35.27,-231.33 36.66,-241.83 42.9,-238.67"/>
<text text-anchor="middle" x="55.5" y="-253.79" font-family="Times,serif" font-size="14.00">b</text>
</g>
<!-- q3 -->
<g id="node4" class="node">
<title>q3</title>
<ellipse fill="none" stroke="black" cx="90" cy="-121.49" rx="19.5" ry="19.5"/>
<ellipse fill="none" stroke="black" cx="90" cy="-121.49" rx="23.5" ry="23.5"/>
<text text-anchor="middle" x="90" y="-117.79" font-family="Times,serif" font-size="14.00">q3</text>
</g>
<!-- q2&#45;&gt;q3 -->
<g id="edge4" class="edge">
<title>q2&#45;&gt;q3</title>
<path fill="none" stroke="black" d="M37.97,-197.23C47.14,-184.07 60.4,-165.01 71.24,-149.44"/>
<polygon fill="black" stroke="black" points="74.13,-151.41 76.98,-141.2 68.39,-147.41 74.13,-151.41"/>
<text text-anchor="middle" x="64.5" y="-166.79" font-family="Times,serif" font-size="14.00">c</text>
</g>
<!-- q4 -->
<g id="node3" class="node">
<title>q4</title>
<ellipse fill="none" stroke="black" cx="90" cy="-23.5" rx="19.5" ry="19.5"/>
<ellipse fill="none" stroke="black" cx="90" cy="-23.5" rx="23.5" ry="23.5"/>
<text text-anchor="middle" x="90" y="-19.8" font-family="Times,serif" font-size="14.00">q4</text>
</g>
<!-- q4&#45;&gt;q4 -->
<g id="edge7" class="edge">
<title>q4&#45;&gt;q4</title>
<path fill="none" stroke="black" d="M112.2,-32.32C122.5,-33.28 131.5,-30.34 131.5,-23.5 131.5,-19.11 127.81,-16.33 122.44,-15.15"/>
<polygon fill="black" stroke="black" points="122.35,-11.64 112.2,-14.68 122.03,-18.64 122.35,-11.64"/>
<text text-anchor="middle" x="135" y="-19.8" font-family="Times,serif" font-size="14.00">a</text>
</g>
<!-- q3&#45;&gt;q1 -->
<g id="edge5" class="edge">
<title>q3&#45;&gt;q1</title>
<path fill="none" stroke="black" d="M87.47,-144.98C83.79,-177.61 76.99,-237.99 73.04,-272.99"/>
<polygon fill="black" stroke="black" points="69.56,-272.64 71.92,-282.97 76.52,-273.43 69.56,-272.64"/>
<text text-anchor="middle" x="84.5" y="-210.29" font-family="Times,serif" font-size="14.00">a</text>
</g>
<!-- q3&#45;&gt;q4 -->
<g id="edge6" class="edge">
<title>q3&#45;&gt;q4</title>
<path fill="none" stroke="black" d="M90,-97.74C90,-85.67 90,-70.62 90,-57.3"/>
<polygon fill="black" stroke="black" points="93.5,-57.08 90,-47.08 86.5,-57.08 93.5,-57.08"/>
<text text-anchor="middle" x="93.5" y="-68.8" font-family="Times,serif" font-size="14.00">a</text>
</g>
<!-- q0 -->
<g id="node5" class="node">
<title>q0</title>
<ellipse fill="aquamarine" stroke="aquamarine" cx="98" cy="-389.49" rx="19.5" ry="19.5"/>
<text text-anchor="middle" x="98" y="-385.79" font-family="Times,serif" font-size="14.00">q0</text>
</g>
<!-- q0&#45;&gt;q1 -->
<g id="edge1" class="edge">
<title>q0&#45;&gt;q1</title>
<path fill="none" stroke="black" d="M92.2,-370.57C88.27,-358.42 83,-342.16 78.59,-328.53"/>
<polygon fill="black" stroke="black" points="81.82,-327.15 75.41,-318.72 75.16,-329.31 81.82,-327.15"/>
<text text-anchor="middle" x="88.5" y="-340.79" font-family="Times,serif" font-size="14.00">a</text>
</g>
<!-- q0&#45;&gt;q3 -->
<g id="edge2" class="edge">
<title>q0&#45;&gt;q3</title>
<path fill="none" stroke="black" d="M100.72,-369.96C102.63,-355.99 105.01,-336.33 106,-318.99 109.98,-249.68 107.05,-231.82 98,-162.99 97.64,-160.29 97.22,-157.49 96.75,-154.69"/>
<polygon fill="black" stroke="black" points="100.16,-153.9 94.92,-144.69 93.28,-155.16 100.16,-153.9"/>
<text text-anchor="middle" x="127.5" y="-253.79" font-family="Times,serif" font-size="14.00">lambda</text>
</g>
</g>
</svg>
