<?xml version="1.0" encoding="UTF-8" standalone="no"?>
<!DOCTYPE svg PUBLIC "-//W3C//DTD SVG 1.1//EN"
 "http://www.w3.org/Graphics/SVG/1.1/DTD/svg11.dtd">
<!-- Generated by graphviz version 3.0.0 (20220226.1711)
 -->
<!-- Pages: 1 -->
<svg width="164pt" height="404pt"
 viewBox="0.00 0.00 164.49 404.38" xmlns="http://www.w3.org/2000/svg" xmlns:xlink="http://www.w3.org/1999/xlink">
<g id="graph0" class="graph" transform="scale(1 1) rotate(0) translate(4 400.38)">
<polygon fill="white" stroke="transparent" points="-4,4 -4,-400.38 160.49,-400.38 160.49,4 -4,4"/>
<!-- [&#39;q1&#39;, &#39;q2&#39;] -->
<g id="node1" class="node">
<title>[&#39;q1&#39;, &#39;q2&#39;]</title>
<ellipse fill="none" stroke="black" cx="65.74" cy="-165.04" rx="44.71" ry="44.71"/>
<ellipse fill="none" stroke="black" cx="65.74" cy="-165.04" rx="48.69" ry="48.69"/>
<text text-anchor="middle" x="65.74" y="-161.34" font-family="Times,serif" font-size="14.00">[&#39;q1&#39;, &#39;q2&#39;]</text>
</g>
<!-- [&#39;q1&#39;, &#39;q2&#39;]&#45;&gt;[&#39;q1&#39;, &#39;q2&#39;] -->
<g id="edge4" class="edge">
<title>[&#39;q1&#39;, &#39;q2&#39;]&#45;&gt;[&#39;q1&#39;, &#39;q2&#39;]</title>
<path fill="none" stroke="black" d="M112.91,-178.67C124.21,-177.61 132.59,-173.06 132.59,-165.04 132.59,-159.65 128.81,-155.83 122.9,-153.58"/>
<polygon fill="black" stroke="black" points="123.42,-150.11 112.91,-151.41 121.93,-156.96 123.42,-150.11"/>
<text text-anchor="middle" x="136.09" y="-161.34" font-family="Times,serif" font-size="14.00">b</text>
</g>
<!-- [&#39;q2&#39;] -->
<g id="node2" class="node">
<title>[&#39;q2&#39;]</title>
<ellipse fill="none" stroke="black" cx="65.74" cy="-32.6" rx="28.68" ry="28.68"/>
<ellipse fill="none" stroke="black" cx="65.74" cy="-32.6" rx="32.7" ry="32.7"/>
<text text-anchor="middle" x="65.74" y="-28.9" font-family="Times,serif" font-size="14.00">[&#39;q2&#39;]</text>
</g>
<!-- [&#39;q1&#39;, &#39;q2&#39;]&#45;&gt;[&#39;q2&#39;] -->
<g id="edge3" class="edge">
<title>[&#39;q1&#39;, &#39;q2&#39;]&#45;&gt;[&#39;q2&#39;]</title>
<path fill="none" stroke="black" d="M65.74,-115.84C65.74,-102.68 65.74,-88.54 65.74,-75.75"/>
<polygon fill="black" stroke="black" points="69.24,-75.38 65.74,-65.38 62.24,-75.38 69.24,-75.38"/>
<text text-anchor="middle" x="69.24" y="-86.99" font-family="Times,serif" font-size="14.00">a</text>
</g>
<!-- [&#39;q2&#39;]&#45;&gt;[&#39;q2&#39;] -->
<g id="edge5" class="edge">
<title>[&#39;q2&#39;]&#45;&gt;[&#39;q2&#39;]</title>
<path fill="none" stroke="black" d="M96.87,-43.47C107.64,-43.58 116.34,-39.96 116.34,-32.6 116.34,-27.77 112.6,-24.54 106.98,-22.93"/>
<polygon fill="black" stroke="black" points="107.22,-19.44 96.87,-21.73 106.39,-26.39 107.22,-19.44"/>
<text text-anchor="middle" x="126.84" y="-28.9" font-family="Times,serif" font-size="14.00">a, b</text>
</g>
<!-- [&#39;q0&#39;, &#39;q1&#39;, &#39;q2&#39;] -->
<g id="node3" class="node">
<title>[&#39;q0&#39;, &#39;q1&#39;, &#39;q2&#39;]</title>
<ellipse fill="aquamarine" stroke="aquamarine" cx="65.74" cy="-330.63" rx="61.98" ry="61.98"/>
<ellipse fill="none" stroke="aquamarine" cx="65.74" cy="-330.63" rx="65.99" ry="65.99"/>
<text text-anchor="middle" x="65.74" y="-326.93" font-family="Times,serif" font-size="14.00">[&#39;q0&#39;, &#39;q1&#39;, &#39;q2&#39;]</text>
</g>
<!-- [&#39;q0&#39;, &#39;q1&#39;, &#39;q2&#39;]&#45;&gt;[&#39;q1&#39;, &#39;q2&#39;] -->
<g id="edge1" class="edge">
<title>[&#39;q0&#39;, &#39;q1&#39;, &#39;q2&#39;]&#45;&gt;[&#39;q1&#39;, &#39;q2&#39;]</title>
<path fill="none" stroke="black" d="M65.74,-264.51C65.74,-251.22 65.74,-237.32 65.74,-224.29"/>
<polygon fill="black" stroke="black" points="69.24,-224.05 65.74,-214.05 62.24,-224.05 69.24,-224.05"/>
<text text-anchor="middle" x="69.24" y="-235.69" font-family="Times,serif" font-size="14.00">a</text>
</g>
<!-- [&#39;q0&#39;, &#39;q1&#39;, &#39;q2&#39;]&#45;&gt;[&#39;q0&#39;, &#39;q1&#39;, &#39;q2&#39;] -->
<g id="edge2" class="edge">
<title>[&#39;q0&#39;, &#39;q1&#39;, &#39;q2&#39;]&#45;&gt;[&#39;q0&#39;, &#39;q1&#39;, &#39;q2&#39;]</title>
<path fill="none" stroke="black" d="M129.64,-346.58C141.31,-344.56 149.49,-339.24 149.49,-330.63 149.49,-324.71 145.62,-320.35 139.41,-317.54"/>
<polygon fill="black" stroke="black" points="140.22,-314.13 129.64,-314.68 138.26,-320.85 140.22,-314.13"/>
<text text-anchor="middle" x="152.99" y="-326.93" font-family="Times,serif" font-size="14.00">b</text>
</g>
</g>
</svg>
