<?xml version="1.0" encoding="UTF-8" standalone="no"?>
<!DOCTYPE svg PUBLIC "-//W3C//DTD SVG 1.1//EN"
 "http://www.w3.org/Graphics/SVG/1.1/DTD/svg11.dtd">
<!-- Generated by graphviz version 3.0.0 (20220226.1711)
 -->
<!-- Pages: 1 -->
<svg width="97pt" height="232pt"
 viewBox="0.00 0.00 97.50 231.99" xmlns="http://www.w3.org/2000/svg" xmlns:xlink="http://www.w3.org/1999/xlink">
<g id="graph0" class="graph" transform="scale(1 1) rotate(0) translate(4 227.99)">
<polygon fill="white" stroke="transparent" points="-4,4 -4,-227.99 93.5,-227.99 93.5,4 -4,4"/>
<!-- q1 -->
<g id="node1" class="node">
<title>q1</title>
<ellipse fill="none" stroke="black" cx="27" cy="-116" rx="27" ry="18"/>
<text text-anchor="middle" x="27" y="-112.3" font-family="Times,serif" font-size="14.00">q1</text>
</g>
<!-- q1&#45;&gt;q1 -->
<g id="edge3" class="edge">
<title>q1&#45;&gt;q1</title>
<path fill="none" stroke="black" d="M51.53,-123.75C62.51,-124.49 72,-121.9 72,-116 72,-112.03 67.72,-109.56 61.57,-108.59"/>
<polygon fill="black" stroke="black" points="61.65,-105.09 51.53,-108.24 61.41,-112.09 61.65,-105.09"/>
<text text-anchor="middle" x="75.5" y="-112.3" font-family="Times,serif" font-size="14.00">b</text>
</g>
<!-- q2 -->
<g id="node2" class="node">
<title>q2</title>
<ellipse fill="none" stroke="black" cx="27" cy="-23.5" rx="19.5" ry="19.5"/>
<ellipse fill="none" stroke="black" cx="27" cy="-23.5" rx="23.5" ry="23.5"/>
<text text-anchor="middle" x="27" y="-19.8" font-family="Times,serif" font-size="14.00">q2</text>
</g>
<!-- q1&#45;&gt;q2 -->
<g id="edge4" class="edge">
<title>q1&#45;&gt;q2</title>
<path fill="none" stroke="black" d="M27,-97.97C27,-86.55 27,-71.13 27,-57.36"/>
<polygon fill="black" stroke="black" points="30.5,-57.25 27,-47.25 23.5,-57.25 30.5,-57.25"/>
<text text-anchor="middle" x="47.5" y="-68.8" font-family="Times,serif" font-size="14.00">lambda</text>
</g>
<!-- q2&#45;&gt;q2 -->
<g id="edge5" class="edge">
<title>q2&#45;&gt;q2</title>
<path fill="none" stroke="black" d="M49.2,-32.32C59.5,-33.28 68.5,-30.34 68.5,-23.5 68.5,-19.11 64.81,-16.33 59.44,-15.15"/>
<polygon fill="black" stroke="black" points="59.35,-11.64 49.2,-14.68 59.03,-18.64 59.35,-11.64"/>
<text text-anchor="middle" x="79" y="-19.8" font-family="Times,serif" font-size="14.00">a, b</text>
</g>
<!-- q0 -->
<g id="node3" class="node">
<title>q0</title>
<ellipse fill="aquamarine" stroke="aquamarine" cx="27" cy="-204.49" rx="19.5" ry="19.5"/>
<text text-anchor="middle" x="27" y="-200.79" font-family="Times,serif" font-size="14.00">q0</text>
</g>
<!-- q0&#45;&gt;q1 -->
<g id="edge1" class="edge">
<title>q0&#45;&gt;q1</title>
<path fill="none" stroke="black" d="M27,-184.73C27,-173 27,-157.7 27,-144.61"/>
<polygon fill="black" stroke="black" points="30.5,-144.26 27,-134.26 23.5,-144.26 30.5,-144.26"/>
<text text-anchor="middle" x="54.5" y="-155.8" font-family="Times,serif" font-size="14.00">a, lambda</text>
</g>
<!-- q0&#45;&gt;q0 -->
<g id="edge2" class="edge">
<title>q0&#45;&gt;q0</title>
<path fill="none" stroke="black" d="M45.13,-212.35C55.22,-213.82 64.5,-211.2 64.5,-204.49 64.5,-200.2 60.69,-197.58 55.3,-196.64"/>
<polygon fill="black" stroke="black" points="55.14,-193.14 45.13,-196.64 55.13,-200.14 55.14,-193.14"/>
<text text-anchor="middle" x="68" y="-200.79" font-family="Times,serif" font-size="14.00">b</text>
</g>
</g>
</svg>
