<?xml version="1.0" encoding="UTF-8" standalone="no"?>
<!DOCTYPE svg PUBLIC "-//W3C//DTD SVG 1.1//EN"
 "http://www.w3.org/Graphics/SVG/1.1/DTD/svg11.dtd">
<!-- Generated by graphviz version 3.0.0 (20220226.1711)
 -->
<!-- Pages: 1 -->
<svg width="222pt" height="430pt"
 viewBox="0.00 0.00 222.34 429.68" xmlns="http://www.w3.org/2000/svg" xmlns:xlink="http://www.w3.org/1999/xlink">
<g id="graph0" class="graph" transform="scale(1 1) rotate(0) translate(4 425.68)">
<polygon fill="white" stroke="transparent" points="-4,4 -4,-425.68 218.34,-425.68 218.34,4 -4,4"/>
<!-- [&#39;q3&#39;] -->
<g id="node1" class="node">
<title>[&#39;q3&#39;]</title>
<ellipse fill="none" stroke="black" cx="148.6" cy="-221.19" rx="28.7" ry="18"/>
<text text-anchor="middle" x="148.6" y="-217.49" font-family="Times,serif" font-size="14.00">[&#39;q3&#39;]</text>
</g>
<!-- [&#39;q4&#39;] -->
<g id="node5" class="node">
<title>[&#39;q4&#39;]</title>
<ellipse fill="none" stroke="black" cx="118.6" cy="-119.6" rx="28.68" ry="28.68"/>
<ellipse fill="none" stroke="black" cx="118.6" cy="-119.6" rx="32.7" ry="32.7"/>
<text text-anchor="middle" x="118.6" y="-115.9" font-family="Times,serif" font-size="14.00">[&#39;q4&#39;]</text>
</g>
<!-- [&#39;q3&#39;]&#45;&gt;[&#39;q4&#39;] -->
<g id="edge3" class="edge">
<title>[&#39;q3&#39;]&#45;&gt;[&#39;q4&#39;]</title>
<path fill="none" stroke="black" d="M143.51,-203.3C140,-191.67 135.19,-175.69 130.73,-160.89"/>
<polygon fill="black" stroke="black" points="133.96,-159.46 127.72,-150.89 127.26,-161.48 133.96,-159.46"/>
<text text-anchor="middle" x="149.1" y="-173.99" font-family="Times,serif" font-size="14.00">a, b</text>
</g>
<!-- [&#39;q1&#39;] -->
<g id="node2" class="node">
<title>[&#39;q1&#39;]</title>
<ellipse fill="none" stroke="black" cx="73.6" cy="-221.19" rx="28.7" ry="18"/>
<text text-anchor="middle" x="73.6" y="-217.49" font-family="Times,serif" font-size="14.00">[&#39;q1&#39;]</text>
</g>
<!-- [&#39;q2&#39;] -->
<g id="node4" class="node">
<title>[&#39;q2&#39;]</title>
<ellipse fill="none" stroke="black" cx="32.6" cy="-355.94" rx="28.68" ry="28.68"/>
<ellipse fill="none" stroke="black" cx="32.6" cy="-355.94" rx="32.7" ry="32.7"/>
<text text-anchor="middle" x="32.6" y="-352.24" font-family="Times,serif" font-size="14.00">[&#39;q2&#39;]</text>
</g>
<!-- [&#39;q1&#39;]&#45;&gt;[&#39;q2&#39;] -->
<g id="edge4" class="edge">
<title>[&#39;q1&#39;]&#45;&gt;[&#39;q2&#39;]</title>
<path fill="none" stroke="black" d="M68.37,-239.13C62.51,-258.08 52.82,-289.45 45.01,-314.77"/>
<polygon fill="black" stroke="black" points="41.61,-313.9 42,-324.49 48.3,-315.96 41.61,-313.9"/>
<text text-anchor="middle" x="74.1" y="-260.99" font-family="Times,serif" font-size="14.00">a, b</text>
</g>
<!-- [] -->
<g id="node3" class="node">
<title>[]</title>
<ellipse fill="none" stroke="black" cx="27.6" cy="-18" rx="27" ry="18"/>
<text text-anchor="middle" x="27.6" y="-14.3" font-family="Times,serif" font-size="14.00">[]</text>
</g>
<!-- []&#45;&gt;[] -->
<g id="edge9" class="edge">
<title>[]&#45;&gt;[]</title>
<path fill="none" stroke="black" d="M52.13,-25.75C63.11,-26.49 72.6,-23.91 72.6,-18 72.6,-14.03 68.31,-11.56 62.17,-10.59"/>
<polygon fill="black" stroke="black" points="62.24,-7.09 52.13,-10.25 62,-14.09 62.24,-7.09"/>
<text text-anchor="middle" x="83.1" y="-14.3" font-family="Times,serif" font-size="14.00">a, b</text>
</g>
<!-- [&#39;q2&#39;]&#45;&gt;[&#39;q1&#39;] -->
<g id="edge8" class="edge">
<title>[&#39;q2&#39;]&#45;&gt;[&#39;q1&#39;]</title>
<path fill="none" stroke="black" d="M34.13,-323.13C35.96,-303.51 39.94,-278.18 48.6,-257.19 50.23,-253.23 52.39,-249.29 54.75,-245.56"/>
<polygon fill="black" stroke="black" points="57.65,-247.52 60.49,-237.31 51.91,-243.52 57.65,-247.52"/>
<text text-anchor="middle" x="52.1" y="-260.99" font-family="Times,serif" font-size="14.00">b</text>
</g>
<!-- [&#39;q2&#39;]&#45;&gt;[] -->
<g id="edge7" class="edge">
<title>[&#39;q2&#39;]&#45;&gt;[]</title>
<path fill="none" stroke="black" d="M32.13,-323.34C31.15,-257.85 28.93,-108.31 28.01,-46.51"/>
<polygon fill="black" stroke="black" points="31.5,-46.31 27.86,-36.36 24.51,-46.41 31.5,-46.31"/>
<text text-anchor="middle" x="34.1" y="-173.99" font-family="Times,serif" font-size="14.00">a</text>
</g>
<!-- [&#39;q4&#39;]&#45;&gt;[&#39;q3&#39;] -->
<g id="edge5" class="edge">
<title>[&#39;q4&#39;]&#45;&gt;[&#39;q3&#39;]</title>
<path fill="none" stroke="black" d="M116.97,-152.22C117.35,-162.96 118.82,-174.85 122.6,-185.19 124.09,-189.27 126.22,-193.28 128.62,-197.05"/>
<polygon fill="black" stroke="black" points="125.89,-199.24 134.57,-205.31 131.57,-195.15 125.89,-199.24"/>
<text text-anchor="middle" x="126.1" y="-173.99" font-family="Times,serif" font-size="14.00">a</text>
</g>
<!-- [&#39;q4&#39;]&#45;&gt;[] -->
<g id="edge6" class="edge">
<title>[&#39;q4&#39;]&#45;&gt;[]</title>
<path fill="none" stroke="black" d="M97.03,-94.99C82.26,-78.83 62.79,-57.52 48.22,-41.58"/>
<polygon fill="black" stroke="black" points="50.44,-38.81 41.11,-33.78 45.27,-43.53 50.44,-38.81"/>
<text text-anchor="middle" x="77.1" y="-57.8" font-family="Times,serif" font-size="14.00">b</text>
</g>
<!-- [&#39;q0&#39;, &#39;q2&#39;, &#39;q4&#39;] -->
<g id="node6" class="node">
<title>[&#39;q0&#39;, &#39;q2&#39;, &#39;q4&#39;]</title>
<ellipse fill="aquamarine" stroke="aquamarine" cx="148.6" cy="-355.94" rx="61.98" ry="61.98"/>
<ellipse fill="none" stroke="aquamarine" cx="148.6" cy="-355.94" rx="65.99" ry="65.99"/>
<text text-anchor="middle" x="148.6" y="-352.24" font-family="Times,serif" font-size="14.00">[&#39;q0&#39;, &#39;q2&#39;, &#39;q4&#39;]</text>
</g>
<!-- [&#39;q0&#39;, &#39;q2&#39;, &#39;q4&#39;]&#45;&gt;[&#39;q3&#39;] -->
<g id="edge1" class="edge">
<title>[&#39;q0&#39;, &#39;q2&#39;, &#39;q4&#39;]&#45;&gt;[&#39;q3&#39;]</title>
<path fill="none" stroke="black" d="M148.6,-290.12C148.6,-275.71 148.6,-261.2 148.6,-249.32"/>
<polygon fill="black" stroke="black" points="152.1,-249.21 148.6,-239.21 145.1,-249.21 152.1,-249.21"/>
<text text-anchor="middle" x="152.1" y="-260.99" font-family="Times,serif" font-size="14.00">a</text>
</g>
<!-- [&#39;q0&#39;, &#39;q2&#39;, &#39;q4&#39;]&#45;&gt;[&#39;q1&#39;] -->
<g id="edge2" class="edge">
<title>[&#39;q0&#39;, &#39;q2&#39;, &#39;q4&#39;]&#45;&gt;[&#39;q1&#39;]</title>
<path fill="none" stroke="black" d="M116.57,-298.26C106.51,-280.45 95.92,-261.7 87.76,-247.27"/>
<polygon fill="black" stroke="black" points="90.75,-245.45 82.79,-238.46 84.66,-248.89 90.75,-245.45"/>
<text text-anchor="middle" x="104.1" y="-260.99" font-family="Times,serif" font-size="14.00">b</text>
</g>
</g>
</svg>
