<?xml version="1.0" encoding="UTF-8" standalone="no"?>
<!DOCTYPE svg PUBLIC "-//W3C//DTD SVG 1.1//EN"
 "http://www.w3.org/Graphics/SVG/1.1/DTD/svg11.dtd">
<!-- Generated by graphviz version 3.0.0 (20220226.1711)
 -->
<!-- Pages: 1 -->
<svg width="176pt" height="232pt"
 viewBox="0.00 0.00 176.00 231.99" xmlns="http://www.w3.org/2000/svg" xmlns:xlink="http://www.w3.org/1999/xlink">
<g id="graph0" class="graph" transform="scale(1 1) rotate(0) translate(4 227.99)">
<polygon fill="white" stroke="transparent" points="-4,4 -4,-227.99 172,-227.99 172,4 -4,4"/>
<!-- q3 -->
<g id="node1" class="node">
<title>q3</title>
<ellipse fill="none" stroke="black" cx="27" cy="-204.49" rx="27" ry="18"/>
<text text-anchor="middle" x="27" y="-200.79" font-family="Times,serif" font-size="14.00">q3</text>
</g>
<!-- q4 -->
<g id="node4" class="node">
<title>q4</title>
<ellipse fill="none" stroke="black" cx="47" cy="-110.5" rx="19.5" ry="19.5"/>
<ellipse fill="none" stroke="black" cx="47" cy="-110.5" rx="23.5" ry="23.5"/>
<text text-anchor="middle" x="47" y="-106.8" font-family="Times,serif" font-size="14.00">q4</text>
</g>
<!-- q3&#45;&gt;q4 -->
<g id="edge5" class="edge">
<title>q3&#45;&gt;q4</title>
<path fill="none" stroke="black" d="M13.43,-188.66C5.74,-178.4 -1.36,-164.4 4,-152 7.51,-143.88 13.53,-136.63 19.98,-130.59"/>
<polygon fill="black" stroke="black" points="22.28,-133.23 27.62,-124.08 17.74,-127.9 22.28,-133.23"/>
<text text-anchor="middle" x="14.5" y="-155.8" font-family="Times,serif" font-size="14.00">a, b</text>
</g>
<!-- q1 -->
<g id="node2" class="node">
<title>q1</title>
<ellipse fill="none" stroke="black" cx="141" cy="-18" rx="27" ry="18"/>
<text text-anchor="middle" x="141" y="-14.3" font-family="Times,serif" font-size="14.00">q1</text>
</g>
<!-- q2 -->
<g id="node3" class="node">
<title>q2</title>
<ellipse fill="none" stroke="black" cx="141" cy="-110.5" rx="19.5" ry="19.5"/>
<ellipse fill="none" stroke="black" cx="141" cy="-110.5" rx="23.5" ry="23.5"/>
<text text-anchor="middle" x="141" y="-106.8" font-family="Times,serif" font-size="14.00">q2</text>
</g>
<!-- q1&#45;&gt;q2 -->
<g id="edge3" class="edge">
<title>q1&#45;&gt;q2</title>
<path fill="none" stroke="black" d="M141,-36.12C141,-47.52 141,-62.87 141,-76.59"/>
<polygon fill="black" stroke="black" points="137.5,-76.66 141,-86.66 144.5,-76.66 137.5,-76.66"/>
<text text-anchor="middle" x="151.5" y="-57.8" font-family="Times,serif" font-size="14.00">a, b</text>
</g>
<!-- q2&#45;&gt;q1 -->
<g id="edge4" class="edge">
<title>q2&#45;&gt;q1</title>
<path fill="none" stroke="black" d="M133.25,-88.23C130.4,-77.93 128.26,-65.36 130,-54 130.42,-51.26 131.02,-48.44 131.71,-45.65"/>
<polygon fill="black" stroke="black" points="135.13,-46.42 134.57,-35.84 128.41,-44.47 135.13,-46.42"/>
<text text-anchor="middle" x="133.5" y="-57.8" font-family="Times,serif" font-size="14.00">b</text>
</g>
<!-- q4&#45;&gt;q3 -->
<g id="edge6" class="edge">
<title>q4&#45;&gt;q3</title>
<path fill="none" stroke="black" d="M42.15,-133.82C39.33,-146.78 35.76,-163.19 32.8,-176.83"/>
<polygon fill="black" stroke="black" points="29.37,-176.11 30.67,-186.62 36.21,-177.59 29.37,-176.11"/>
<text text-anchor="middle" x="41.5" y="-155.8" font-family="Times,serif" font-size="14.00">a</text>
</g>
<!-- q0 -->
<g id="node5" class="node">
<title>q0</title>
<ellipse fill="aquamarine" stroke="aquamarine" cx="96" cy="-204.49" rx="19.5" ry="19.5"/>
<text text-anchor="middle" x="96" y="-200.79" font-family="Times,serif" font-size="14.00">q0</text>
</g>
<!-- q0&#45;&gt;q2 -->
<g id="edge1" class="edge">
<title>q0&#45;&gt;q2</title>
<path fill="none" stroke="black" d="M106.73,-187.88C110.84,-181.55 115.41,-174.08 119,-167 122.94,-159.24 126.66,-150.61 129.88,-142.51"/>
<polygon fill="black" stroke="black" points="133.22,-143.58 133.54,-132.99 126.68,-141.06 133.22,-143.58"/>
<text text-anchor="middle" x="146.5" y="-155.8" font-family="Times,serif" font-size="14.00">lambda</text>
</g>
<!-- q0&#45;&gt;q4 -->
<g id="edge2" class="edge">
<title>q0&#45;&gt;q4</title>
<path fill="none" stroke="black" d="M86.05,-187.69C82.16,-181.33 77.74,-173.89 74,-167 69.5,-158.72 64.91,-149.58 60.82,-141.15"/>
<polygon fill="black" stroke="black" points="63.92,-139.52 56.44,-132.02 57.61,-142.55 63.92,-139.52"/>
<text text-anchor="middle" x="94.5" y="-155.8" font-family="Times,serif" font-size="14.00">lambda</text>
</g>
</g>
</svg>
