<?xml version="1.0" encoding="UTF-8" standalone="no"?>
<!DOCTYPE svg PUBLIC "-//W3C//DTD SVG 1.1//EN"
 "http://www.w3.org/Graphics/SVG/1.1/DTD/svg11.dtd">
<!-- Generated by graphviz version 3.0.0 (20220226.1711)
 -->
<!-- Pages: 1 -->
<svg width="379pt" height="1055pt"
 viewBox="0.00 0.00 379.00 1054.85" xmlns="http://www.w3.org/2000/svg" xmlns:xlink="http://www.w3.org/1999/xlink">
<g id="graph0" class="graph" transform="scale(1 1) rotate(0) translate(4 1050.85)">
<polygon fill="white" stroke="transparent" points="-4,4 -4,-1050.85 375,-1050.85 375,4 -4,4"/>
<!-- [&#39;q0&#39;, &#39;q2&#39;] -->
<g id="node1" class="node">
<title>[&#39;q0&#39;, &#39;q2&#39;]</title>
<ellipse fill="none" stroke="black" cx="167" cy="-1028.85" rx="44.69" ry="18"/>
<text text-anchor="middle" x="167" y="-1025.15" font-family="Times,serif" font-size="14.00">[&#39;q0&#39;, &#39;q2&#39;]</text>
</g>
<!-- [&#39;q0&#39;, &#39;q3&#39;] -->
<g id="node4" class="node">
<title>[&#39;q0&#39;, &#39;q3&#39;]</title>
<ellipse fill="none" stroke="black" cx="200" cy="-911.01" rx="44.71" ry="44.71"/>
<ellipse fill="none" stroke="black" cx="200" cy="-911.01" rx="48.69" ry="48.69"/>
<text text-anchor="middle" x="200" y="-907.31" font-family="Times,serif" font-size="14.00">[&#39;q0&#39;, &#39;q3&#39;]</text>
</g>
<!-- [&#39;q0&#39;, &#39;q2&#39;]&#45;&gt;[&#39;q0&#39;, &#39;q3&#39;] -->
<g id="edge5" class="edge">
<title>[&#39;q0&#39;, &#39;q2&#39;]&#45;&gt;[&#39;q0&#39;, &#39;q3&#39;]</title>
<path fill="none" stroke="black" d="M171.87,-1010.76C175.14,-999.29 179.64,-983.48 184.09,-967.87"/>
<polygon fill="black" stroke="black" points="187.46,-968.79 186.84,-958.22 180.73,-966.88 187.46,-968.79"/>
<text text-anchor="middle" x="184.5" y="-981.65" font-family="Times,serif" font-size="14.00">a</text>
</g>
<!-- [&#39;q0&#39;, &#39;q1&#39;, &#39;q3&#39;] -->
<g id="node6" class="node">
<title>[&#39;q0&#39;, &#39;q1&#39;, &#39;q3&#39;]</title>
<ellipse fill="none" stroke="black" cx="85" cy="-65.74" rx="61.98" ry="61.98"/>
<ellipse fill="none" stroke="black" cx="85" cy="-65.74" rx="65.99" ry="65.99"/>
<text text-anchor="middle" x="85" y="-62.04" font-family="Times,serif" font-size="14.00">[&#39;q0&#39;, &#39;q1&#39;, &#39;q3&#39;]</text>
</g>
<!-- [&#39;q0&#39;, &#39;q2&#39;]&#45;&gt;[&#39;q0&#39;, &#39;q1&#39;, &#39;q3&#39;] -->
<g id="edge6" class="edge">
<title>[&#39;q0&#39;, &#39;q2&#39;]&#45;&gt;[&#39;q0&#39;, &#39;q1&#39;, &#39;q3&#39;]</title>
<path fill="none" stroke="black" d="M128.69,-1019.29C79.38,-1005.75 0,-974.28 0,-912.01 0,-912.01 0,-912.01 0,-247.23 0,-204.47 19.77,-160.97 40.24,-127.4"/>
<polygon fill="black" stroke="black" points="43.39,-128.97 45.73,-118.64 37.46,-125.25 43.39,-128.97"/>
<text text-anchor="middle" x="3.5" y="-637.76" font-family="Times,serif" font-size="14.00">b</text>
</g>
<!-- [&#39;q0&#39;, &#39;q1&#39;] -->
<g id="node2" class="node">
<title>[&#39;q0&#39;, &#39;q1&#39;]</title>
<ellipse fill="none" stroke="black" cx="140" cy="-684.96" rx="44.69" ry="18"/>
<text text-anchor="middle" x="140" y="-681.26" font-family="Times,serif" font-size="14.00">[&#39;q0&#39;, &#39;q1&#39;]</text>
</g>
<!-- [&#39;q0&#39;, &#39;q1&#39;]&#45;&gt;[&#39;q0&#39;, &#39;q2&#39;] -->
<g id="edge3" class="edge">
<title>[&#39;q0&#39;, &#39;q1&#39;]&#45;&gt;[&#39;q0&#39;, &#39;q2&#39;]</title>
<path fill="none" stroke="black" d="M138.1,-703.14C133.73,-746.58 124.61,-864.18 142,-959.85 144.59,-974.11 149.91,-989.3 154.98,-1001.71"/>
<polygon fill="black" stroke="black" points="151.8,-1003.16 158.94,-1010.98 158.24,-1000.41 151.8,-1003.16"/>
<text text-anchor="middle" x="135.5" y="-832.96" font-family="Times,serif" font-size="14.00">a</text>
</g>
<!-- [&#39;q0&#39;, &#39;q1&#39;, &#39;q2&#39;] -->
<g id="node3" class="node">
<title>[&#39;q0&#39;, &#39;q1&#39;, &#39;q2&#39;]</title>
<ellipse fill="none" stroke="black" cx="103" cy="-597.96" rx="61.99" ry="18"/>
<text text-anchor="middle" x="103" y="-594.26" font-family="Times,serif" font-size="14.00">[&#39;q0&#39;, &#39;q1&#39;, &#39;q2&#39;]</text>
</g>
<!-- [&#39;q0&#39;, &#39;q1&#39;]&#45;&gt;[&#39;q0&#39;, &#39;q1&#39;, &#39;q2&#39;] -->
<g id="edge4" class="edge">
<title>[&#39;q0&#39;, &#39;q1&#39;]&#45;&gt;[&#39;q0&#39;, &#39;q1&#39;, &#39;q2&#39;]</title>
<path fill="none" stroke="black" d="M132.69,-667.17C127.5,-655.26 120.44,-639.03 114.5,-625.39"/>
<polygon fill="black" stroke="black" points="117.62,-623.79 110.42,-616.01 111.2,-626.58 117.62,-623.79"/>
<text text-anchor="middle" x="127.5" y="-637.76" font-family="Times,serif" font-size="14.00">b</text>
</g>
<!-- [&#39;q0&#39;, &#39;q2&#39;, &#39;q3&#39;] -->
<g id="node5" class="node">
<title>[&#39;q0&#39;, &#39;q2&#39;, &#39;q3&#39;]</title>
<ellipse fill="none" stroke="black" cx="161" cy="-248.23" rx="61.98" ry="61.98"/>
<ellipse fill="none" stroke="black" cx="161" cy="-248.23" rx="65.99" ry="65.99"/>
<text text-anchor="middle" x="161" y="-244.53" font-family="Times,serif" font-size="14.00">[&#39;q0&#39;, &#39;q2&#39;, &#39;q3&#39;]</text>
</g>
<!-- [&#39;q0&#39;, &#39;q1&#39;, &#39;q2&#39;]&#45;&gt;[&#39;q0&#39;, &#39;q2&#39;, &#39;q3&#39;] -->
<g id="edge7" class="edge">
<title>[&#39;q0&#39;, &#39;q1&#39;, &#39;q2&#39;]&#45;&gt;[&#39;q0&#39;, &#39;q2&#39;, &#39;q3&#39;]</title>
<path fill="none" stroke="black" d="M98.8,-579.98C89.94,-541.1 71.78,-442.97 93,-364.98 98.13,-346.11 107.2,-327.19 117.08,-310.26"/>
<polygon fill="black" stroke="black" points="120.13,-311.98 122.3,-301.6 114.13,-308.36 120.13,-311.98"/>
<text text-anchor="middle" x="96.5" y="-443.27" font-family="Times,serif" font-size="14.00">a</text>
</g>
<!-- [&#39;q0&#39;, &#39;q1&#39;, &#39;q2&#39;, &#39;q3&#39;] -->
<g id="node7" class="node">
<title>[&#39;q0&#39;, &#39;q1&#39;, &#39;q2&#39;, &#39;q3&#39;]</title>
<ellipse fill="none" stroke="black" cx="191" cy="-446.97" rx="77.99" ry="77.99"/>
<ellipse fill="none" stroke="black" cx="191" cy="-446.97" rx="81.99" ry="81.99"/>
<text text-anchor="middle" x="191" y="-443.27" font-family="Times,serif" font-size="14.00">[&#39;q0&#39;, &#39;q1&#39;, &#39;q2&#39;, &#39;q3&#39;]</text>
</g>
<!-- [&#39;q0&#39;, &#39;q1&#39;, &#39;q2&#39;]&#45;&gt;[&#39;q0&#39;, &#39;q1&#39;, &#39;q2&#39;, &#39;q3&#39;] -->
<g id="edge8" class="edge">
<title>[&#39;q0&#39;, &#39;q1&#39;, &#39;q2&#39;]&#45;&gt;[&#39;q0&#39;, &#39;q1&#39;, &#39;q2&#39;, &#39;q3&#39;]</title>
<path fill="none" stroke="black" d="M112.92,-580.16C120.83,-566.78 132.52,-546.99 144.45,-526.78"/>
<polygon fill="black" stroke="black" points="147.5,-528.5 149.58,-518.11 141.48,-524.94 147.5,-528.5"/>
<text text-anchor="middle" x="135.5" y="-550.76" font-family="Times,serif" font-size="14.00">b</text>
</g>
<!-- [&#39;q0&#39;, &#39;q3&#39;]&#45;&gt;[&#39;q0&#39;, &#39;q1&#39;] -->
<g id="edge10" class="edge">
<title>[&#39;q0&#39;, &#39;q3&#39;]&#45;&gt;[&#39;q0&#39;, &#39;q1&#39;]</title>
<path fill="none" stroke="black" d="M186.65,-863.81C181.93,-847.23 176.64,-828.38 172,-811.16 162.91,-777.42 153.04,-738.39 146.7,-713"/>
<polygon fill="black" stroke="black" points="150.02,-711.87 144.21,-703.01 143.23,-713.56 150.02,-711.87"/>
<text text-anchor="middle" x="175.5" y="-778.86" font-family="Times,serif" font-size="14.00">b</text>
</g>
<!-- [&#39;q0&#39;] -->
<g id="node8" class="node">
<title>[&#39;q0&#39;]</title>
<ellipse fill="aquamarine" stroke="aquamarine" cx="217" cy="-782.56" rx="28.7" ry="28.7"/>
<text text-anchor="middle" x="217" y="-778.86" font-family="Times,serif" font-size="14.00">[&#39;q0&#39;]</text>
</g>
<!-- [&#39;q0&#39;, &#39;q3&#39;]&#45;&gt;[&#39;q0&#39;] -->
<g id="edge9" class="edge">
<title>[&#39;q0&#39;, &#39;q3&#39;]&#45;&gt;[&#39;q0&#39;]</title>
<path fill="none" stroke="black" d="M206.38,-862.56C208.22,-848.85 210.21,-834.08 211.96,-821.06"/>
<polygon fill="black" stroke="black" points="215.44,-821.43 213.3,-811.05 208.5,-820.5 215.44,-821.43"/>
<text text-anchor="middle" x="213.5" y="-832.96" font-family="Times,serif" font-size="14.00">a</text>
</g>
<!-- [&#39;q0&#39;, &#39;q2&#39;, &#39;q3&#39;]&#45;&gt;[&#39;q0&#39;, &#39;q3&#39;] -->
<g id="edge13" class="edge">
<title>[&#39;q0&#39;, &#39;q2&#39;, &#39;q3&#39;]&#45;&gt;[&#39;q0&#39;, &#39;q3&#39;]</title>
<path fill="none" stroke="black" d="M218.09,-281.36C248.89,-301.54 284.99,-330.29 307,-364.98 326.81,-396.2 326,-409 326,-445.97 326,-783.56 326,-783.56 326,-783.56 326,-827.7 287,-861.87 252.39,-883.49"/>
<polygon fill="black" stroke="black" points="250.48,-880.56 243.72,-888.72 254.09,-886.56 250.48,-880.56"/>
<text text-anchor="middle" x="329.5" y="-637.76" font-family="Times,serif" font-size="14.00">a</text>
</g>
<!-- [&#39;q0&#39;, &#39;q2&#39;, &#39;q3&#39;]&#45;&gt;[&#39;q0&#39;, &#39;q1&#39;, &#39;q3&#39;] -->
<g id="edge14" class="edge">
<title>[&#39;q0&#39;, &#39;q2&#39;, &#39;q3&#39;]&#45;&gt;[&#39;q0&#39;, &#39;q1&#39;, &#39;q3&#39;]</title>
<path fill="none" stroke="black" d="M135.8,-187.38C128.87,-170.93 121.3,-152.96 114.17,-136.02"/>
<polygon fill="black" stroke="black" points="117.37,-134.6 110.26,-126.74 110.92,-137.31 117.37,-134.6"/>
<text text-anchor="middle" x="129.5" y="-153.29" font-family="Times,serif" font-size="14.00">b</text>
</g>
<!-- [&#39;q0&#39;, &#39;q1&#39;, &#39;q3&#39;]&#45;&gt;[&#39;q0&#39;, &#39;q2&#39;] -->
<g id="edge11" class="edge">
<title>[&#39;q0&#39;, &#39;q1&#39;, &#39;q3&#39;]&#45;&gt;[&#39;q0&#39;, &#39;q2&#39;]</title>
<path fill="none" stroke="black" d="M149.71,-78.86C232.13,-98.47 364,-145.7 364,-247.23 364,-912.01 364,-912.01 364,-912.01 364,-979.38 277.33,-1008.34 218.96,-1020.21"/>
<polygon fill="black" stroke="black" points="217.94,-1016.84 208.78,-1022.17 219.26,-1023.72 217.94,-1016.84"/>
<text text-anchor="middle" x="367.5" y="-637.76" font-family="Times,serif" font-size="14.00">a</text>
</g>
<!-- [&#39;q0&#39;, &#39;q1&#39;, &#39;q3&#39;]&#45;&gt;[&#39;q0&#39;, &#39;q1&#39;, &#39;q2&#39;] -->
<g id="edge12" class="edge">
<title>[&#39;q0&#39;, &#39;q1&#39;, &#39;q3&#39;]&#45;&gt;[&#39;q0&#39;, &#39;q1&#39;, &#39;q2&#39;]</title>
<path fill="none" stroke="black" d="M78.48,-131.41C70.75,-221.11 61.15,-388.18 80,-528.96 81.91,-543.19 86.75,-558.39 91.51,-570.8"/>
<polygon fill="black" stroke="black" points="88.27,-572.11 95.25,-580.08 94.76,-569.49 88.27,-572.11"/>
<text text-anchor="middle" x="73.5" y="-335.78" font-family="Times,serif" font-size="14.00">b</text>
</g>
<!-- [&#39;q0&#39;, &#39;q1&#39;, &#39;q2&#39;, &#39;q3&#39;]&#45;&gt;[&#39;q0&#39;, &#39;q2&#39;, &#39;q3&#39;] -->
<g id="edge15" class="edge">
<title>[&#39;q0&#39;, &#39;q1&#39;, &#39;q2&#39;, &#39;q3&#39;]&#45;&gt;[&#39;q0&#39;, &#39;q2&#39;, &#39;q3&#39;]</title>
<path fill="none" stroke="black" d="M178.75,-365.67C176.62,-351.64 174.4,-337.12 172.29,-323.27"/>
<polygon fill="black" stroke="black" points="175.74,-322.69 170.77,-313.33 168.82,-323.75 175.74,-322.69"/>
<text text-anchor="middle" x="179.5" y="-335.78" font-family="Times,serif" font-size="14.00">a</text>
</g>
<!-- [&#39;q0&#39;, &#39;q1&#39;, &#39;q2&#39;, &#39;q3&#39;]&#45;&gt;[&#39;q0&#39;, &#39;q1&#39;, &#39;q2&#39;, &#39;q3&#39;] -->
<g id="edge16" class="edge">
<title>[&#39;q0&#39;, &#39;q1&#39;, &#39;q2&#39;, &#39;q3&#39;]&#45;&gt;[&#39;q0&#39;, &#39;q1&#39;, &#39;q2&#39;, &#39;q3&#39;]</title>
<path fill="none" stroke="black" d="M271.02,-465C282.94,-462.19 290.99,-456.18 290.99,-446.97 290.99,-440.49 287.01,-435.6 280.5,-432.29"/>
<polygon fill="black" stroke="black" points="281.62,-428.97 271.02,-428.94 279.29,-435.57 281.62,-428.97"/>
<text text-anchor="middle" x="294.49" y="-443.27" font-family="Times,serif" font-size="14.00">b</text>
</g>
<!-- [&#39;q0&#39;]&#45;&gt;[&#39;q0&#39;, &#39;q1&#39;] -->
<g id="edge2" class="edge">
<title>[&#39;q0&#39;]&#45;&gt;[&#39;q0&#39;, &#39;q1&#39;]</title>
<path fill="none" stroke="black" d="M202.81,-757.36C195.65,-745.89 186.48,-732.26 177,-720.96 173.54,-716.84 169.62,-712.69 165.67,-708.77"/>
<polygon fill="black" stroke="black" points="167.79,-705.95 158.14,-701.57 162.95,-711.01 167.79,-705.95"/>
<text text-anchor="middle" x="191.5" y="-724.76" font-family="Times,serif" font-size="14.00">b</text>
</g>
<!-- [&#39;q0&#39;]&#45;&gt;[&#39;q0&#39;] -->
<g id="edge1" class="edge">
<title>[&#39;q0&#39;]&#45;&gt;[&#39;q0&#39;]</title>
<path fill="none" stroke="black" d="M243.82,-792.62C254.57,-793.19 263.6,-789.84 263.6,-782.56 263.6,-777.79 259.71,-774.7 254,-773.3"/>
<polygon fill="black" stroke="black" points="254.06,-769.8 243.82,-772.5 253.51,-776.78 254.06,-769.8"/>
<text text-anchor="middle" x="267.1" y="-778.86" font-family="Times,serif" font-size="14.00">a</text>
</g>
</g>
</svg>
