<?xml version="1.0" encoding="UTF-8" standalone="no"?>
<!DOCTYPE svg PUBLIC "-//W3C//DTD SVG 1.1//EN"
 "http://www.w3.org/Graphics/SVG/1.1/DTD/svg11.dtd">
<!-- Generated by graphviz version 3.0.0 (20220226.1711)
 -->
<!-- Pages: 1 -->
<svg width="411pt" height="1055pt"
 viewBox="0.00 0.00 410.50 1054.85" xmlns="http://www.w3.org/2000/svg" xmlns:xlink="http://www.w3.org/1999/xlink">
<g id="graph0" class="graph" transform="scale(1 1) rotate(0) translate(4 1050.85)">
<polygon fill="white" stroke="transparent" points="-4,4 -4,-1050.85 406.5,-1050.85 406.5,4 -4,4"/>
<!-- [&#39;q0&#39;, &#39;q1&#39;] -->
<g id="node1" class="node">
<title>[&#39;q0&#39;, &#39;q1&#39;]</title>
<ellipse fill="none" stroke="black" cx="325.9" cy="-1028.85" rx="44.69" ry="18"/>
<text text-anchor="middle" x="325.9" y="-1025.15" font-family="Times,serif" font-size="14.00">[&#39;q0&#39;, &#39;q1&#39;]</text>
</g>
<!-- [&#39;q0&#39;, &#39;q1&#39;, &#39;q2&#39;] -->
<g id="node2" class="node">
<title>[&#39;q0&#39;, &#39;q1&#39;, &#39;q2&#39;]</title>
<ellipse fill="none" stroke="black" cx="191.9" cy="-941.85" rx="61.99" ry="18"/>
<text text-anchor="middle" x="191.9" y="-938.15" font-family="Times,serif" font-size="14.00">[&#39;q0&#39;, &#39;q1&#39;, &#39;q2&#39;]</text>
</g>
<!-- [&#39;q0&#39;, &#39;q1&#39;]&#45;&gt;[&#39;q0&#39;, &#39;q1&#39;, &#39;q2&#39;] -->
<g id="edge4" class="edge">
<title>[&#39;q0&#39;, &#39;q1&#39;]&#45;&gt;[&#39;q0&#39;, &#39;q1&#39;, &#39;q2&#39;]</title>
<path fill="none" stroke="black" d="M302.87,-1013.24C281.41,-999.63 249.18,-979.18 224.97,-963.83"/>
<polygon fill="black" stroke="black" points="226.77,-960.82 216.45,-958.42 223.02,-966.73 226.77,-960.82"/>
<text text-anchor="middle" x="270.4" y="-981.65" font-family="Times,serif" font-size="14.00">b</text>
</g>
<!-- [&#39;q0&#39;, &#39;q2&#39;] -->
<g id="node3" class="node">
<title>[&#39;q0&#39;, &#39;q2&#39;]</title>
<ellipse fill="none" stroke="black" cx="257.9" cy="-274.89" rx="44.69" ry="18"/>
<text text-anchor="middle" x="257.9" y="-271.19" font-family="Times,serif" font-size="14.00">[&#39;q0&#39;, &#39;q2&#39;]</text>
</g>
<!-- [&#39;q0&#39;, &#39;q1&#39;]&#45;&gt;[&#39;q0&#39;, &#39;q2&#39;] -->
<g id="edge3" class="edge">
<title>[&#39;q0&#39;, &#39;q1&#39;]&#45;&gt;[&#39;q0&#39;, &#39;q2&#39;]</title>
<path fill="none" stroke="black" d="M318.5,-1010.96C311.78,-994.06 302.9,-967.16 302.9,-942.85 302.9,-942.85 302.9,-942.85 302.9,-408.63 302.9,-369.84 285.45,-327.88 272.29,-301.75"/>
<polygon fill="black" stroke="black" points="275.39,-300.13 267.67,-292.87 269.18,-303.36 275.39,-300.13"/>
<text text-anchor="middle" x="306.4" y="-679.67" font-family="Times,serif" font-size="14.00">a</text>
</g>
<!-- [&#39;q0&#39;, &#39;q2&#39;, &#39;q3&#39;] -->
<g id="node5" class="node">
<title>[&#39;q0&#39;, &#39;q2&#39;, &#39;q3&#39;]</title>
<ellipse fill="none" stroke="black" cx="118.9" cy="-592.12" rx="61.98" ry="61.98"/>
<ellipse fill="none" stroke="black" cx="118.9" cy="-592.12" rx="65.99" ry="65.99"/>
<text text-anchor="middle" x="118.9" y="-588.42" font-family="Times,serif" font-size="14.00">[&#39;q0&#39;, &#39;q2&#39;, &#39;q3&#39;]</text>
</g>
<!-- [&#39;q0&#39;, &#39;q1&#39;, &#39;q2&#39;]&#45;&gt;[&#39;q0&#39;, &#39;q2&#39;, &#39;q3&#39;] -->
<g id="edge7" class="edge">
<title>[&#39;q0&#39;, &#39;q1&#39;, &#39;q2&#39;]&#45;&gt;[&#39;q0&#39;, &#39;q2&#39;, &#39;q3&#39;]</title>
<path fill="none" stroke="black" d="M135.99,-934.19C97.7,-926.39 49.54,-909.48 24.9,-872.85 -15.77,-812.37 0.53,-777.55 24.9,-708.87 33.16,-685.6 48.31,-663.6 64.08,-645.16"/>
<polygon fill="black" stroke="black" points="66.86,-647.29 70.85,-637.48 61.61,-642.66 66.86,-647.29"/>
<text text-anchor="middle" x="28.4" y="-787.16" font-family="Times,serif" font-size="14.00">a</text>
</g>
<!-- [&#39;q0&#39;, &#39;q1&#39;, &#39;q2&#39;, &#39;q3&#39;] -->
<g id="node7" class="node">
<title>[&#39;q0&#39;, &#39;q1&#39;, &#39;q2&#39;, &#39;q3&#39;]</title>
<ellipse fill="none" stroke="black" cx="122.9" cy="-790.86" rx="77.99" ry="77.99"/>
<ellipse fill="none" stroke="black" cx="122.9" cy="-790.86" rx="81.99" ry="81.99"/>
<text text-anchor="middle" x="122.9" y="-787.16" font-family="Times,serif" font-size="14.00">[&#39;q0&#39;, &#39;q1&#39;, &#39;q2&#39;, &#39;q3&#39;]</text>
</g>
<!-- [&#39;q0&#39;, &#39;q1&#39;, &#39;q2&#39;]&#45;&gt;[&#39;q0&#39;, &#39;q1&#39;, &#39;q2&#39;, &#39;q3&#39;] -->
<g id="edge8" class="edge">
<title>[&#39;q0&#39;, &#39;q1&#39;, &#39;q2&#39;]&#45;&gt;[&#39;q0&#39;, &#39;q1&#39;, &#39;q2&#39;, &#39;q3&#39;]</title>
<path fill="none" stroke="black" d="M183.99,-923.76C178.21,-911.28 169.9,-893.34 161.27,-874.7"/>
<polygon fill="black" stroke="black" points="164.39,-873.12 157.02,-865.52 158.04,-876.06 164.39,-873.12"/>
<text text-anchor="middle" x="178.4" y="-894.65" font-family="Times,serif" font-size="14.00">b</text>
</g>
<!-- [&#39;q0&#39;, &#39;q3&#39;] -->
<g id="node4" class="node">
<title>[&#39;q0&#39;, &#39;q3&#39;]</title>
<ellipse fill="none" stroke="black" cx="292.9" cy="-157.04" rx="44.71" ry="44.71"/>
<ellipse fill="none" stroke="black" cx="292.9" cy="-157.04" rx="48.69" ry="48.69"/>
<text text-anchor="middle" x="292.9" y="-153.34" font-family="Times,serif" font-size="14.00">[&#39;q0&#39;, &#39;q3&#39;]</text>
</g>
<!-- [&#39;q0&#39;, &#39;q2&#39;]&#45;&gt;[&#39;q0&#39;, &#39;q3&#39;] -->
<g id="edge5" class="edge">
<title>[&#39;q0&#39;, &#39;q2&#39;]&#45;&gt;[&#39;q0&#39;, &#39;q3&#39;]</title>
<path fill="none" stroke="black" d="M263.07,-256.79C266.55,-245.27 271.35,-229.37 276.09,-213.69"/>
<polygon fill="black" stroke="black" points="279.48,-214.59 279.02,-204 272.78,-212.56 279.48,-214.59"/>
<text text-anchor="middle" x="275.4" y="-227.69" font-family="Times,serif" font-size="14.00">a</text>
</g>
<!-- [&#39;q0&#39;, &#39;q1&#39;, &#39;q3&#39;] -->
<g id="node6" class="node">
<title>[&#39;q0&#39;, &#39;q1&#39;, &#39;q3&#39;]</title>
<ellipse fill="none" stroke="black" cx="208.9" cy="-409.63" rx="61.98" ry="61.98"/>
<ellipse fill="none" stroke="black" cx="208.9" cy="-409.63" rx="65.99" ry="65.99"/>
<text text-anchor="middle" x="208.9" y="-405.93" font-family="Times,serif" font-size="14.00">[&#39;q0&#39;, &#39;q1&#39;, &#39;q3&#39;]</text>
</g>
<!-- [&#39;q0&#39;, &#39;q2&#39;]&#45;&gt;[&#39;q0&#39;, &#39;q1&#39;, &#39;q3&#39;] -->
<g id="edge6" class="edge">
<title>[&#39;q0&#39;, &#39;q2&#39;]&#45;&gt;[&#39;q0&#39;, &#39;q1&#39;, &#39;q3&#39;]</title>
<path fill="none" stroke="black" d="M251.6,-292.96C247.24,-304.77 241.12,-321.35 234.87,-338.28"/>
<polygon fill="black" stroke="black" points="231.58,-337.11 231.4,-347.7 238.14,-339.53 231.58,-337.11"/>
<text text-anchor="middle" x="247.4" y="-314.69" font-family="Times,serif" font-size="14.00">b</text>
</g>
<!-- [&#39;q0&#39;, &#39;q3&#39;]&#45;&gt;[&#39;q0&#39;, &#39;q1&#39;] -->
<g id="edge10" class="edge">
<title>[&#39;q0&#39;, &#39;q3&#39;]&#45;&gt;[&#39;q0&#39;, &#39;q1&#39;]</title>
<path fill="none" stroke="black" d="M322.05,-196.32C335.66,-217.92 348.9,-246.08 348.9,-273.89 348.9,-942.85 348.9,-942.85 348.9,-942.85 348.9,-962.98 342.82,-984.89 336.91,-1001.42"/>
<polygon fill="black" stroke="black" points="333.57,-1000.37 333.31,-1010.96 340.12,-1002.84 333.57,-1000.37"/>
<text text-anchor="middle" x="352.4" y="-588.42" font-family="Times,serif" font-size="14.00">b</text>
</g>
<!-- [&#39;q0&#39;] -->
<g id="node8" class="node">
<title>[&#39;q0&#39;]</title>
<ellipse fill="aquamarine" stroke="aquamarine" cx="348.9" cy="-28.6" rx="28.7" ry="28.7"/>
<text text-anchor="middle" x="348.9" y="-24.9" font-family="Times,serif" font-size="14.00">[&#39;q0&#39;]</text>
</g>
<!-- [&#39;q0&#39;, &#39;q3&#39;]&#45;&gt;[&#39;q0&#39;] -->
<g id="edge9" class="edge">
<title>[&#39;q0&#39;, &#39;q3&#39;]&#45;&gt;[&#39;q0&#39;]</title>
<path fill="none" stroke="black" d="M312.33,-112.17C319.28,-96.49 327,-79.05 333.55,-64.26"/>
<polygon fill="black" stroke="black" points="336.82,-65.52 337.67,-54.96 330.42,-62.69 336.82,-65.52"/>
<text text-anchor="middle" x="330.4" y="-78.99" font-family="Times,serif" font-size="14.00">a</text>
</g>
<!-- [&#39;q0&#39;, &#39;q2&#39;, &#39;q3&#39;]&#45;&gt;[&#39;q0&#39;, &#39;q3&#39;] -->
<g id="edge13" class="edge">
<title>[&#39;q0&#39;, &#39;q2&#39;, &#39;q3&#39;]&#45;&gt;[&#39;q0&#39;, &#39;q3&#39;]</title>
<path fill="none" stroke="black" d="M112.33,-526.63C109.55,-475.36 111.14,-402.74 133.9,-343.89 157.21,-283.62 209,-229.33 247.16,-195.21"/>
<polygon fill="black" stroke="black" points="249.89,-197.48 255.08,-188.24 245.26,-192.22 249.89,-197.48"/>
<text text-anchor="middle" x="152.4" y="-314.69" font-family="Times,serif" font-size="14.00">a</text>
</g>
<!-- [&#39;q0&#39;, &#39;q2&#39;, &#39;q3&#39;]&#45;&gt;[&#39;q0&#39;, &#39;q1&#39;, &#39;q3&#39;] -->
<g id="edge14" class="edge">
<title>[&#39;q0&#39;, &#39;q2&#39;, &#39;q3&#39;]&#45;&gt;[&#39;q0&#39;, &#39;q1&#39;, &#39;q3&#39;]</title>
<path fill="none" stroke="black" d="M147.88,-533.02C156.58,-515.56 166.21,-496.25 175.2,-478.22"/>
<polygon fill="black" stroke="black" points="178.5,-479.44 179.83,-468.93 172.24,-476.32 178.5,-479.44"/>
<text text-anchor="middle" x="169.4" y="-497.18" font-family="Times,serif" font-size="14.00">b</text>
</g>
<!-- [&#39;q0&#39;, &#39;q1&#39;, &#39;q3&#39;]&#45;&gt;[&#39;q0&#39;, &#39;q1&#39;, &#39;q2&#39;] -->
<g id="edge12" class="edge">
<title>[&#39;q0&#39;, &#39;q1&#39;, &#39;q3&#39;]&#45;&gt;[&#39;q0&#39;, &#39;q1&#39;, &#39;q2&#39;]</title>
<path fill="none" stroke="black" d="M226.95,-473.25C249.94,-563.73 281.83,-735.25 238.9,-872.85 233.94,-888.77 223.8,-904.24 214.2,-916.4"/>
<polygon fill="black" stroke="black" points="211.39,-914.31 207.72,-924.25 216.79,-918.77 211.39,-914.31"/>
<text text-anchor="middle" x="262.4" y="-679.67" font-family="Times,serif" font-size="14.00">b</text>
</g>
<!-- [&#39;q0&#39;, &#39;q1&#39;, &#39;q3&#39;]&#45;&gt;[&#39;q0&#39;, &#39;q2&#39;] -->
<g id="edge11" class="edge">
<title>[&#39;q0&#39;, &#39;q1&#39;, &#39;q3&#39;]&#45;&gt;[&#39;q0&#39;, &#39;q2&#39;]</title>
<path fill="none" stroke="black" d="M217.37,-344.32C220.19,-332.86 223.93,-321.27 228.9,-310.89 230.75,-307.04 233.1,-303.27 235.67,-299.69"/>
<polygon fill="black" stroke="black" points="238.45,-301.82 241.92,-291.81 232.96,-297.47 238.45,-301.82"/>
<text text-anchor="middle" x="232.4" y="-314.69" font-family="Times,serif" font-size="14.00">a</text>
</g>
<!-- [&#39;q0&#39;, &#39;q1&#39;, &#39;q2&#39;, &#39;q3&#39;]&#45;&gt;[&#39;q0&#39;, &#39;q2&#39;, &#39;q3&#39;] -->
<g id="edge15" class="edge">
<title>[&#39;q0&#39;, &#39;q1&#39;, &#39;q2&#39;, &#39;q3&#39;]&#45;&gt;[&#39;q0&#39;, &#39;q2&#39;, &#39;q3&#39;]</title>
<path fill="none" stroke="black" d="M121.25,-708.7C120.98,-695.21 120.7,-681.26 120.43,-667.94"/>
<polygon fill="black" stroke="black" points="123.92,-667.81 120.22,-657.88 116.93,-667.95 123.92,-667.81"/>
<text text-anchor="middle" x="124.4" y="-679.67" font-family="Times,serif" font-size="14.00">a</text>
</g>
<!-- [&#39;q0&#39;, &#39;q1&#39;, &#39;q2&#39;, &#39;q3&#39;]&#45;&gt;[&#39;q0&#39;, &#39;q1&#39;, &#39;q2&#39;, &#39;q3&#39;] -->
<g id="edge16" class="edge">
<title>[&#39;q0&#39;, &#39;q1&#39;, &#39;q2&#39;, &#39;q3&#39;]&#45;&gt;[&#39;q0&#39;, &#39;q1&#39;, &#39;q2&#39;, &#39;q3&#39;]</title>
<path fill="none" stroke="black" d="M202.93,-808.89C214.84,-806.08 222.9,-800.07 222.9,-790.86 222.9,-784.38 218.91,-779.49 212.41,-776.18"/>
<polygon fill="black" stroke="black" points="213.52,-772.86 202.93,-772.83 211.19,-779.46 213.52,-772.86"/>
<text text-anchor="middle" x="226.4" y="-787.16" font-family="Times,serif" font-size="14.00">b</text>
</g>
<!-- [&#39;q0&#39;]&#45;&gt;[&#39;q0&#39;, &#39;q1&#39;] -->
<g id="edge2" class="edge">
<title>[&#39;q0&#39;]&#45;&gt;[&#39;q0&#39;, &#39;q1&#39;]</title>
<path fill="none" stroke="black" d="M361.14,-54.6C372.25,-79.65 386.9,-119.6 386.9,-156.04 386.9,-942.85 386.9,-942.85 386.9,-942.85 386.9,-967.51 369.74,-989.93 353.63,-1005.54"/>
<polygon fill="black" stroke="black" points="350.89,-1003.3 345.88,-1012.64 355.62,-1008.46 350.89,-1003.3"/>
<text text-anchor="middle" x="390.4" y="-497.18" font-family="Times,serif" font-size="14.00">b</text>
</g>
<!-- [&#39;q0&#39;]&#45;&gt;[&#39;q0&#39;] -->
<g id="edge1" class="edge">
<title>[&#39;q0&#39;]&#45;&gt;[&#39;q0&#39;]</title>
<path fill="none" stroke="black" d="M375.72,-38.66C386.47,-39.23 395.5,-35.87 395.5,-28.6 395.5,-23.82 391.61,-20.74 385.9,-19.34"/>
<polygon fill="black" stroke="black" points="385.96,-15.83 375.72,-18.53 385.41,-22.81 385.96,-15.83"/>
<text text-anchor="middle" x="399" y="-24.9" font-family="Times,serif" font-size="14.00">a</text>
</g>
</g>
</svg>
