<?xml version="1.0" encoding="UTF-8" standalone="no"?>
<!DOCTYPE svg PUBLIC "-//W3C//DTD SVG 1.1//EN"
 "http://www.w3.org/Graphics/SVG/1.1/DTD/svg11.dtd">
<!-- Generated by graphviz version 3.0.0 (20220226.1711)
 -->
<!-- Pages: 1 -->
<svg width="93pt" height="319pt"
 viewBox="0.00 0.00 93.50 318.99" xmlns="http://www.w3.org/2000/svg" xmlns:xlink="http://www.w3.org/1999/xlink">
<g id="graph0" class="graph" transform="scale(1 1) rotate(0) translate(4 314.99)">
<polygon fill="white" stroke="transparent" points="-4,4 -4,-314.99 89.5,-314.99 89.5,4 -4,4"/>
<!-- q1 -->
<g id="node1" class="node">
<title>q1</title>
<ellipse fill="none" stroke="black" cx="27" cy="-203" rx="27" ry="18"/>
<text text-anchor="middle" x="27" y="-199.3" font-family="Times,serif" font-size="14.00">q1</text>
</g>
<!-- q2 -->
<g id="node2" class="node">
<title>q2</title>
<ellipse fill="none" stroke="black" cx="27" cy="-116" rx="27" ry="18"/>
<text text-anchor="middle" x="27" y="-112.3" font-family="Times,serif" font-size="14.00">q2</text>
</g>
<!-- q1&#45;&gt;q2 -->
<g id="edge3" class="edge">
<title>q1&#45;&gt;q2</title>
<path fill="none" stroke="black" d="M27,-184.8C27,-173.16 27,-157.54 27,-144.23"/>
<polygon fill="black" stroke="black" points="30.5,-144.17 27,-134.17 23.5,-144.17 30.5,-144.17"/>
<text text-anchor="middle" x="37.5" y="-155.8" font-family="Times,serif" font-size="14.00">a, b</text>
</g>
<!-- q3 -->
<g id="node3" class="node">
<title>q3</title>
<ellipse fill="none" stroke="black" cx="27" cy="-23.5" rx="19.5" ry="19.5"/>
<ellipse fill="none" stroke="black" cx="27" cy="-23.5" rx="23.5" ry="23.5"/>
<text text-anchor="middle" x="27" y="-19.8" font-family="Times,serif" font-size="14.00">q3</text>
</g>
<!-- q2&#45;&gt;q3 -->
<g id="edge4" class="edge">
<title>q2&#45;&gt;q3</title>
<path fill="none" stroke="black" d="M27,-97.97C27,-86.55 27,-71.13 27,-57.36"/>
<polygon fill="black" stroke="black" points="30.5,-57.25 27,-47.25 23.5,-57.25 30.5,-57.25"/>
<text text-anchor="middle" x="37.5" y="-68.8" font-family="Times,serif" font-size="14.00">a, b</text>
</g>
<!-- q0 -->
<g id="node4" class="node">
<title>q0</title>
<ellipse fill="aquamarine" stroke="aquamarine" cx="27" cy="-291.49" rx="19.5" ry="19.5"/>
<text text-anchor="middle" x="27" y="-287.79" font-family="Times,serif" font-size="14.00">q0</text>
</g>
<!-- q0&#45;&gt;q1 -->
<g id="edge2" class="edge">
<title>q0&#45;&gt;q1</title>
<path fill="none" stroke="black" d="M27,-271.73C27,-260 27,-244.7 27,-231.61"/>
<polygon fill="black" stroke="black" points="30.5,-231.26 27,-221.26 23.5,-231.26 30.5,-231.26"/>
<text text-anchor="middle" x="30.5" y="-242.8" font-family="Times,serif" font-size="14.00">b</text>
</g>
<!-- q0&#45;&gt;q0 -->
<g id="edge1" class="edge">
<title>q0&#45;&gt;q0</title>
<path fill="none" stroke="black" d="M45.13,-299.35C55.22,-300.82 64.5,-298.2 64.5,-291.49 64.5,-287.2 60.69,-284.58 55.3,-283.64"/>
<polygon fill="black" stroke="black" points="55.14,-280.14 45.13,-283.64 55.13,-287.14 55.14,-280.14"/>
<text text-anchor="middle" x="75" y="-287.79" font-family="Times,serif" font-size="14.00">a, b</text>
</g>
</g>
</svg>
