<?xml version="1.0" encoding="UTF-8" standalone="no"?>
<!DOCTYPE svg PUBLIC "-//W3C//DTD SVG 1.1//EN"
 "http://www.w3.org/Graphics/SVG/1.1/DTD/svg11.dtd">
<!-- Generated by graphviz version 3.0.0 (20220226.1711)
 -->
<!-- Pages: 1 -->
<svg width="393pt" height="612pt"
 viewBox="0.00 0.00 393.34 612.17" xmlns="http://www.w3.org/2000/svg" xmlns:xlink="http://www.w3.org/1999/xlink">
<g id="graph0" class="graph" transform="scale(1 1) rotate(0) translate(4 608.17)">
<polygon fill="white" stroke="transparent" points="-4,4 -4,-608.17 389.34,-608.17 389.34,4 -4,4"/>
<!-- [&#39;q7&#39;] -->
<g id="node1" class="node">
<title>[&#39;q7&#39;]</title>
<ellipse fill="none" stroke="black" cx="331.74" cy="-302.09" rx="28.7" ry="18"/>
<text text-anchor="middle" x="331.74" y="-298.39" font-family="Times,serif" font-size="14.00">[&#39;q7&#39;]</text>
</g>
<!-- [&#39;q7&#39;]&#45;&gt;[&#39;q7&#39;] -->
<g id="edge14" class="edge">
<title>[&#39;q7&#39;]&#45;&gt;[&#39;q7&#39;]</title>
<path fill="none" stroke="black" d="M355.24,-312.58C367.39,-314.19 378.34,-310.7 378.34,-302.09 378.34,-296.03 372.93,-292.51 365.49,-291.51"/>
<polygon fill="black" stroke="black" points="365.21,-288.01 355.24,-291.59 365.27,-295.01 365.21,-288.01"/>
<text text-anchor="middle" x="381.84" y="-298.39" font-family="Times,serif" font-size="14.00">b</text>
</g>
<!-- [&#39;q4&#39;, &#39;q6&#39;] -->
<g id="node3" class="node">
<title>[&#39;q4&#39;, &#39;q6&#39;]</title>
<ellipse fill="none" stroke="black" cx="333.74" cy="-200.49" rx="44.69" ry="18"/>
<text text-anchor="middle" x="333.74" y="-196.79" font-family="Times,serif" font-size="14.00">[&#39;q4&#39;, &#39;q6&#39;]</text>
</g>
<!-- [&#39;q7&#39;]&#45;&gt;[&#39;q4&#39;, &#39;q6&#39;] -->
<g id="edge13" class="edge">
<title>[&#39;q7&#39;]&#45;&gt;[&#39;q4&#39;, &#39;q6&#39;]</title>
<path fill="none" stroke="black" d="M332.09,-283.74C332.4,-268.6 332.84,-246.37 333.2,-228.84"/>
<polygon fill="black" stroke="black" points="336.7,-228.71 333.4,-218.64 329.7,-228.57 336.7,-228.71"/>
<text text-anchor="middle" x="336.24" y="-240.29" font-family="Times,serif" font-size="14.00">a</text>
</g>
<!-- [&#39;q3&#39;] -->
<g id="node2" class="node">
<title>[&#39;q3&#39;]</title>
<ellipse fill="none" stroke="black" cx="106.74" cy="-302.09" rx="28.7" ry="18"/>
<text text-anchor="middle" x="106.74" y="-298.39" font-family="Times,serif" font-size="14.00">[&#39;q3&#39;]</text>
</g>
<!-- [&#39;q3&#39;]&#45;&gt;[&#39;q3&#39;] -->
<g id="edge7" class="edge">
<title>[&#39;q3&#39;]&#45;&gt;[&#39;q3&#39;]</title>
<path fill="none" stroke="black" d="M130.24,-312.58C142.39,-314.19 153.34,-310.7 153.34,-302.09 153.34,-296.03 147.93,-292.51 140.49,-291.51"/>
<polygon fill="black" stroke="black" points="140.21,-288.01 130.24,-291.59 140.27,-295.01 140.21,-288.01"/>
<text text-anchor="middle" x="156.84" y="-298.39" font-family="Times,serif" font-size="14.00">a</text>
</g>
<!-- [&#39;q3&#39;, &#39;q4&#39;] -->
<g id="node6" class="node">
<title>[&#39;q3&#39;, &#39;q4&#39;]</title>
<ellipse fill="none" stroke="black" cx="82.74" cy="-403.68" rx="44.69" ry="18"/>
<text text-anchor="middle" x="82.74" y="-399.98" font-family="Times,serif" font-size="14.00">[&#39;q3&#39;, &#39;q4&#39;]</text>
</g>
<!-- [&#39;q3&#39;]&#45;&gt;[&#39;q3&#39;, &#39;q4&#39;] -->
<g id="edge8" class="edge">
<title>[&#39;q3&#39;]&#45;&gt;[&#39;q3&#39;, &#39;q4&#39;]</title>
<path fill="none" stroke="black" d="M102.61,-320.24C98.94,-335.45 93.52,-357.95 89.27,-375.6"/>
<polygon fill="black" stroke="black" points="85.87,-374.79 86.93,-385.34 92.67,-376.43 85.87,-374.79"/>
<text text-anchor="middle" x="98.24" y="-356.48" font-family="Times,serif" font-size="14.00">b</text>
</g>
<!-- [&#39;q3&#39;, &#39;q4&#39;, &#39;q5&#39;] -->
<g id="node8" class="node">
<title>[&#39;q3&#39;, &#39;q4&#39;, &#39;q5&#39;]</title>
<ellipse fill="none" stroke="black" cx="65.74" cy="-65.74" rx="61.98" ry="61.98"/>
<ellipse fill="none" stroke="black" cx="65.74" cy="-65.74" rx="65.99" ry="65.99"/>
<text text-anchor="middle" x="65.74" y="-62.04" font-family="Times,serif" font-size="14.00">[&#39;q3&#39;, &#39;q4&#39;, &#39;q5&#39;]</text>
</g>
<!-- [&#39;q4&#39;, &#39;q6&#39;]&#45;&gt;[&#39;q3&#39;, &#39;q4&#39;, &#39;q5&#39;] -->
<g id="edge18" class="edge">
<title>[&#39;q4&#39;, &#39;q6&#39;]&#45;&gt;[&#39;q3&#39;, &#39;q4&#39;, &#39;q5&#39;]</title>
<path fill="none" stroke="black" d="M306.57,-186.03C266.36,-166.11 189.73,-128.16 133.67,-100.39"/>
<polygon fill="black" stroke="black" points="135.02,-97.15 124.51,-95.85 131.92,-103.43 135.02,-97.15"/>
<text text-anchor="middle" x="272.24" y="-153.29" font-family="Times,serif" font-size="14.00">a, b</text>
</g>
<!-- [&#39;q8&#39;] -->
<g id="node4" class="node">
<title>[&#39;q8&#39;]</title>
<ellipse fill="none" stroke="black" cx="330.74" cy="-403.68" rx="28.7" ry="18"/>
<text text-anchor="middle" x="330.74" y="-399.98" font-family="Times,serif" font-size="14.00">[&#39;q8&#39;]</text>
</g>
<!-- [&#39;q8&#39;]&#45;&gt;[&#39;q7&#39;] -->
<g id="edge6" class="edge">
<title>[&#39;q8&#39;]&#45;&gt;[&#39;q7&#39;]</title>
<path fill="none" stroke="black" d="M330.92,-385.34C331.07,-370.2 331.29,-347.97 331.47,-330.44"/>
<polygon fill="black" stroke="black" points="334.97,-330.27 331.57,-320.24 327.97,-330.2 334.97,-330.27"/>
<text text-anchor="middle" x="334.24" y="-356.48" font-family="Times,serif" font-size="14.00">b</text>
</g>
<!-- [&#39;q9&#39;] -->
<g id="node9" class="node">
<title>[&#39;q9&#39;]</title>
<ellipse fill="none" stroke="black" cx="304.74" cy="-538.43" rx="28.68" ry="28.68"/>
<ellipse fill="none" stroke="black" cx="304.74" cy="-538.43" rx="32.7" ry="32.7"/>
<text text-anchor="middle" x="304.74" y="-534.73" font-family="Times,serif" font-size="14.00">[&#39;q9&#39;]</text>
</g>
<!-- [&#39;q8&#39;]&#45;&gt;[&#39;q9&#39;] -->
<g id="edge5" class="edge">
<title>[&#39;q8&#39;]&#45;&gt;[&#39;q9&#39;]</title>
<path fill="none" stroke="black" d="M317.97,-420.11C313.92,-425.89 309.94,-432.75 307.74,-439.68 302.1,-457.55 300.76,-478.17 301.07,-495.86"/>
<polygon fill="black" stroke="black" points="297.57,-496.02 301.42,-505.89 304.57,-495.77 297.57,-496.02"/>
<text text-anchor="middle" x="311.24" y="-443.48" font-family="Times,serif" font-size="14.00">a</text>
</g>
<!-- [] -->
<g id="node5" class="node">
<title>[]</title>
<ellipse fill="none" stroke="black" cx="204.74" cy="-200.49" rx="27" ry="18"/>
<text text-anchor="middle" x="204.74" y="-196.79" font-family="Times,serif" font-size="14.00">[]</text>
</g>
<!-- []&#45;&gt;[] -->
<g id="edge17" class="edge">
<title>[]&#45;&gt;[]</title>
<path fill="none" stroke="black" d="M229.28,-208.24C240.25,-208.98 249.74,-206.4 249.74,-200.49 249.74,-196.52 245.46,-194.05 239.32,-193.08"/>
<polygon fill="black" stroke="black" points="239.39,-189.58 229.28,-192.74 239.15,-196.58 239.39,-189.58"/>
<text text-anchor="middle" x="260.24" y="-196.79" font-family="Times,serif" font-size="14.00">a, b</text>
</g>
<!-- [&#39;q3&#39;, &#39;q4&#39;]&#45;&gt;[&#39;q3&#39;] -->
<g id="edge15" class="edge">
<title>[&#39;q3&#39;, &#39;q4&#39;]&#45;&gt;[&#39;q3&#39;]</title>
<path fill="none" stroke="black" d="M82.35,-385.35C82.48,-375.63 83.24,-363.35 85.74,-352.68 87.61,-344.71 90.66,-336.38 93.87,-328.88"/>
<polygon fill="black" stroke="black" points="97.14,-330.15 98.08,-319.59 90.76,-327.25 97.14,-330.15"/>
<text text-anchor="middle" x="89.24" y="-356.48" font-family="Times,serif" font-size="14.00">a</text>
</g>
<!-- [&#39;q3&#39;, &#39;q4&#39;]&#45;&gt;[&#39;q3&#39;, &#39;q4&#39;, &#39;q5&#39;] -->
<g id="edge16" class="edge">
<title>[&#39;q3&#39;, &#39;q4&#39;]&#45;&gt;[&#39;q3&#39;, &#39;q4&#39;, &#39;q5&#39;]</title>
<path fill="none" stroke="black" d="M78.25,-385.5C74.91,-371.84 70.63,-352.18 68.74,-334.68 61.77,-269.83 61.54,-195.64 62.75,-141.8"/>
<polygon fill="black" stroke="black" points="66.25,-141.73 63,-131.65 59.26,-141.56 66.25,-141.73"/>
<text text-anchor="middle" x="67.24" y="-240.29" font-family="Times,serif" font-size="14.00">b</text>
</g>
<!-- [&#39;q2&#39;] -->
<g id="node7" class="node">
<title>[&#39;q2&#39;]</title>
<ellipse fill="none" stroke="black" cx="181.74" cy="-403.68" rx="28.7" ry="18"/>
<text text-anchor="middle" x="181.74" y="-399.98" font-family="Times,serif" font-size="14.00">[&#39;q2&#39;]</text>
</g>
<!-- [&#39;q2&#39;]&#45;&gt;[&#39;q3&#39;] -->
<g id="edge3" class="edge">
<title>[&#39;q2&#39;]&#45;&gt;[&#39;q3&#39;]</title>
<path fill="none" stroke="black" d="M170.03,-387.12C157.81,-370.9 138.51,-345.27 124.44,-326.58"/>
<polygon fill="black" stroke="black" points="127.19,-324.42 118.38,-318.54 121.6,-328.63 127.19,-324.42"/>
<text text-anchor="middle" x="158.24" y="-356.48" font-family="Times,serif" font-size="14.00">a</text>
</g>
<!-- [&#39;q1&#39;] -->
<g id="node10" class="node">
<title>[&#39;q1&#39;]</title>
<ellipse fill="none" stroke="black" cx="210.74" cy="-302.09" rx="28.68" ry="28.68"/>
<ellipse fill="none" stroke="black" cx="210.74" cy="-302.09" rx="32.7" ry="32.7"/>
<text text-anchor="middle" x="210.74" y="-298.39" font-family="Times,serif" font-size="14.00">[&#39;q1&#39;]</text>
</g>
<!-- [&#39;q2&#39;]&#45;&gt;[&#39;q1&#39;] -->
<g id="edge4" class="edge">
<title>[&#39;q2&#39;]&#45;&gt;[&#39;q1&#39;]</title>
<path fill="none" stroke="black" d="M186.66,-385.79C190.03,-374.24 194.63,-358.43 198.91,-343.72"/>
<polygon fill="black" stroke="black" points="202.37,-344.36 201.81,-333.78 195.65,-342.4 202.37,-344.36"/>
<text text-anchor="middle" x="199.24" y="-356.48" font-family="Times,serif" font-size="14.00">b</text>
</g>
<!-- [&#39;q3&#39;, &#39;q4&#39;, &#39;q5&#39;]&#45;&gt;[&#39;q3&#39;, &#39;q4&#39;, &#39;q5&#39;] -->
<g id="edge19" class="edge">
<title>[&#39;q3&#39;, &#39;q4&#39;, &#39;q5&#39;]&#45;&gt;[&#39;q3&#39;, &#39;q4&#39;, &#39;q5&#39;]</title>
<path fill="none" stroke="black" d="M129.64,-81.69C141.31,-79.67 149.49,-74.36 149.49,-65.74 149.49,-59.82 145.62,-55.46 139.41,-52.66"/>
<polygon fill="black" stroke="black" points="140.22,-49.24 129.64,-49.8 138.26,-55.96 140.22,-49.24"/>
<text text-anchor="middle" x="159.99" y="-62.04" font-family="Times,serif" font-size="14.00">a, b</text>
</g>
<!-- [&#39;q9&#39;]&#45;&gt;[&#39;q8&#39;] -->
<g id="edge12" class="edge">
<title>[&#39;q9&#39;]&#45;&gt;[&#39;q8&#39;]</title>
<path fill="none" stroke="black" d="M310.84,-506.31C315.28,-483.65 321.23,-453.28 325.46,-431.65"/>
<polygon fill="black" stroke="black" points="328.9,-432.3 327.39,-421.81 322.03,-430.95 328.9,-432.3"/>
<text text-anchor="middle" x="327.24" y="-443.48" font-family="Times,serif" font-size="14.00">b</text>
</g>
<!-- [&#39;q9&#39;]&#45;&gt;[] -->
<g id="edge11" class="edge">
<title>[&#39;q9&#39;]&#45;&gt;[]</title>
<path fill="none" stroke="black" d="M300.31,-505.81C291.45,-444.52 270.82,-311.88 252.74,-269.49 245.79,-253.18 234.48,-236.89 224.58,-224.34"/>
<polygon fill="black" stroke="black" points="227.05,-221.84 218.02,-216.29 221.63,-226.26 227.05,-221.84"/>
<text text-anchor="middle" x="280.24" y="-356.48" font-family="Times,serif" font-size="14.00">a</text>
</g>
<!-- [&#39;q1&#39;]&#45;&gt;[] -->
<g id="edge10" class="edge">
<title>[&#39;q1&#39;]&#45;&gt;[]</title>
<path fill="none" stroke="black" d="M208.83,-269.3C208.04,-256.27 207.14,-241.33 206.39,-228.8"/>
<polygon fill="black" stroke="black" points="209.87,-228.29 205.77,-218.51 202.88,-228.71 209.87,-228.29"/>
<text text-anchor="middle" x="211.24" y="-240.29" font-family="Times,serif" font-size="14.00">b</text>
</g>
<!-- [&#39;q1&#39;]&#45;&gt;[&#39;q2&#39;] -->
<g id="edge9" class="edge">
<title>[&#39;q1&#39;]&#45;&gt;[&#39;q2&#39;]</title>
<path fill="none" stroke="black" d="M193.38,-329.68C189.51,-336.87 185.91,-344.84 183.74,-352.68 181.77,-359.86 180.89,-367.83 180.59,-375.26"/>
<polygon fill="black" stroke="black" points="177.09,-375.23 180.52,-385.26 184.09,-375.29 177.09,-375.23"/>
<text text-anchor="middle" x="187.24" y="-356.48" font-family="Times,serif" font-size="14.00">a</text>
</g>
<!-- [&#39;q0&#39;, &#39;q1&#39;, &#39;q9&#39;] -->
<g id="node11" class="node">
<title>[&#39;q0&#39;, &#39;q1&#39;, &#39;q9&#39;]</title>
<ellipse fill="aquamarine" stroke="aquamarine" cx="186.74" cy="-538.43" rx="61.98" ry="61.98"/>
<ellipse fill="none" stroke="aquamarine" cx="186.74" cy="-538.43" rx="65.99" ry="65.99"/>
<text text-anchor="middle" x="186.74" y="-534.73" font-family="Times,serif" font-size="14.00">[&#39;q0&#39;, &#39;q1&#39;, &#39;q9&#39;]</text>
</g>
<!-- [&#39;q0&#39;, &#39;q1&#39;, &#39;q9&#39;]&#45;&gt;[&#39;q8&#39;] -->
<g id="edge2" class="edge">
<title>[&#39;q0&#39;, &#39;q1&#39;, &#39;q9&#39;]&#45;&gt;[&#39;q8&#39;]</title>
<path fill="none" stroke="black" d="M234.76,-493.14C252.92,-476.39 273.78,-457.16 292.74,-439.68 297.59,-435.22 302.79,-430.43 307.73,-425.87"/>
<polygon fill="black" stroke="black" points="310.23,-428.34 315.21,-418.99 305.49,-423.19 310.23,-428.34"/>
<text text-anchor="middle" x="296.24" y="-443.48" font-family="Times,serif" font-size="14.00">b</text>
</g>
<!-- [&#39;q0&#39;, &#39;q1&#39;, &#39;q9&#39;]&#45;&gt;[&#39;q2&#39;] -->
<g id="edge1" class="edge">
<title>[&#39;q0&#39;, &#39;q1&#39;, &#39;q9&#39;]&#45;&gt;[&#39;q2&#39;]</title>
<path fill="none" stroke="black" d="M184.3,-472.61C183.76,-458.2 183.21,-443.69 182.77,-431.8"/>
<polygon fill="black" stroke="black" points="186.26,-431.56 182.39,-421.7 179.26,-431.83 186.26,-431.56"/>
<text text-anchor="middle" x="186.24" y="-443.48" font-family="Times,serif" font-size="14.00">a</text>
</g>
</g>
</svg>
