<?xml version="1.0" encoding="UTF-8" standalone="no"?>
<!DOCTYPE svg PUBLIC "-//W3C//DTD SVG 1.1//EN"
 "http://www.w3.org/Graphics/SVG/1.1/DTD/svg11.dtd">
<!-- Generated by graphviz version 3.0.0 (20220226.1711)
 -->
<!-- Pages: 1 -->
<svg width="376pt" height="761pt"
 viewBox="0.00 0.00 376.34 760.87" xmlns="http://www.w3.org/2000/svg" xmlns:xlink="http://www.w3.org/1999/xlink">
<g id="graph0" class="graph" transform="scale(1 1) rotate(0) translate(4 756.87)">
<polygon fill="white" stroke="transparent" points="-4,4 -4,-756.87 372.34,-756.87 372.34,4 -4,4"/>
<!-- [&#39;q7&#39;] -->
<g id="node1" class="node">
<title>[&#39;q7&#39;]</title>
<ellipse fill="none" stroke="black" cx="296.74" cy="-450.78" rx="28.7" ry="18"/>
<text text-anchor="middle" x="296.74" y="-447.08" font-family="Times,serif" font-size="14.00">[&#39;q7&#39;]</text>
</g>
<!-- [&#39;q7&#39;]&#45;&gt;[&#39;q7&#39;] -->
<g id="edge14" class="edge">
<title>[&#39;q7&#39;]&#45;&gt;[&#39;q7&#39;]</title>
<path fill="none" stroke="black" d="M320.24,-461.27C332.39,-462.89 343.34,-459.39 343.34,-450.78 343.34,-444.73 337.93,-441.2 330.49,-440.2"/>
<polygon fill="black" stroke="black" points="330.21,-436.7 320.24,-440.29 330.27,-443.7 330.21,-436.7"/>
<text text-anchor="middle" x="346.84" y="-447.08" font-family="Times,serif" font-size="14.00">b</text>
</g>
<!-- [&#39;q4&#39;, &#39;q6&#39;] -->
<g id="node4" class="node">
<title>[&#39;q4&#39;, &#39;q6&#39;]</title>
<ellipse fill="none" stroke="black" cx="296.74" cy="-349.18" rx="44.69" ry="18"/>
<text text-anchor="middle" x="296.74" y="-345.48" font-family="Times,serif" font-size="14.00">[&#39;q4&#39;, &#39;q6&#39;]</text>
</g>
<!-- [&#39;q7&#39;]&#45;&gt;[&#39;q4&#39;, &#39;q6&#39;] -->
<g id="edge13" class="edge">
<title>[&#39;q7&#39;]&#45;&gt;[&#39;q4&#39;, &#39;q6&#39;]</title>
<path fill="none" stroke="black" d="M296.74,-432.43C296.74,-417.29 296.74,-395.07 296.74,-377.53"/>
<polygon fill="black" stroke="black" points="300.24,-377.33 296.74,-367.33 293.24,-377.33 300.24,-377.33"/>
<text text-anchor="middle" x="300.24" y="-388.98" font-family="Times,serif" font-size="14.00">a</text>
</g>
<!-- [&#39;q3&#39;] -->
<g id="node2" class="node">
<title>[&#39;q3&#39;]</title>
<ellipse fill="none" stroke="black" cx="74.74" cy="-450.78" rx="28.7" ry="18"/>
<text text-anchor="middle" x="74.74" y="-447.08" font-family="Times,serif" font-size="14.00">[&#39;q3&#39;]</text>
</g>
<!-- [&#39;q3&#39;]&#45;&gt;[&#39;q3&#39;] -->
<g id="edge7" class="edge">
<title>[&#39;q3&#39;]&#45;&gt;[&#39;q3&#39;]</title>
<path fill="none" stroke="black" d="M98.24,-461.27C110.39,-462.89 121.34,-459.39 121.34,-450.78 121.34,-444.73 115.93,-441.2 108.49,-440.2"/>
<polygon fill="black" stroke="black" points="108.21,-436.7 98.24,-440.29 108.27,-443.7 108.21,-436.7"/>
<text text-anchor="middle" x="124.84" y="-447.08" font-family="Times,serif" font-size="14.00">a</text>
</g>
<!-- [&#39;q3&#39;, &#39;q4&#39;] -->
<g id="node6" class="node">
<title>[&#39;q3&#39;, &#39;q4&#39;]</title>
<ellipse fill="none" stroke="black" cx="65.74" cy="-349.18" rx="44.69" ry="18"/>
<text text-anchor="middle" x="65.74" y="-345.48" font-family="Times,serif" font-size="14.00">[&#39;q3&#39;, &#39;q4&#39;]</text>
</g>
<!-- [&#39;q3&#39;]&#45;&gt;[&#39;q3&#39;, &#39;q4&#39;] -->
<g id="edge8" class="edge">
<title>[&#39;q3&#39;]&#45;&gt;[&#39;q3&#39;, &#39;q4&#39;]</title>
<path fill="none" stroke="black" d="M70.48,-432.92C68.28,-423.38 65.84,-411.19 64.74,-400.18 64.08,-393.55 64.65,-391.85 64.74,-385.18 64.78,-382.63 64.83,-379.97 64.89,-377.31"/>
<polygon fill="black" stroke="black" points="68.39,-377.36 65.16,-367.27 61.4,-377.17 68.39,-377.36"/>
<text text-anchor="middle" x="68.24" y="-388.98" font-family="Times,serif" font-size="14.00">b</text>
</g>
<!-- [&#39;q8&#39;] -->
<g id="node3" class="node">
<title>[&#39;q8&#39;]</title>
<ellipse fill="none" stroke="black" cx="246.74" cy="-552.38" rx="28.7" ry="18"/>
<text text-anchor="middle" x="246.74" y="-548.68" font-family="Times,serif" font-size="14.00">[&#39;q8&#39;]</text>
</g>
<!-- [&#39;q8&#39;]&#45;&gt;[&#39;q7&#39;] -->
<g id="edge6" class="edge">
<title>[&#39;q8&#39;]&#45;&gt;[&#39;q7&#39;]</title>
<path fill="none" stroke="black" d="M255,-534.93C262.82,-519.36 274.68,-495.74 283.76,-477.65"/>
<polygon fill="black" stroke="black" points="287.12,-478.76 288.48,-468.25 280.86,-475.62 287.12,-478.76"/>
<text text-anchor="middle" x="275.24" y="-505.18" font-family="Times,serif" font-size="14.00">b</text>
</g>
<!-- [&#39;q9&#39;] -->
<g id="node12" class="node">
<title>[&#39;q9&#39;]</title>
<ellipse fill="none" stroke="black" cx="217.74" cy="-450.78" rx="28.68" ry="28.68"/>
<ellipse fill="none" stroke="black" cx="217.74" cy="-450.78" rx="32.7" ry="32.7"/>
<text text-anchor="middle" x="217.74" y="-447.08" font-family="Times,serif" font-size="14.00">[&#39;q9&#39;]</text>
</g>
<!-- [&#39;q8&#39;]&#45;&gt;[&#39;q9&#39;] -->
<g id="edge5" class="edge">
<title>[&#39;q8&#39;]&#45;&gt;[&#39;q9&#39;]</title>
<path fill="none" stroke="black" d="M232.05,-536.62C227.21,-530.8 222.38,-523.75 219.74,-516.38 217.17,-509.18 215.82,-501.24 215.23,-493.45"/>
<polygon fill="black" stroke="black" points="218.72,-493.26 214.85,-483.4 211.73,-493.52 218.72,-493.26"/>
<text text-anchor="middle" x="223.24" y="-505.18" font-family="Times,serif" font-size="14.00">a</text>
</g>
<!-- [&#39;q5&#39;] -->
<g id="node10" class="node">
<title>[&#39;q5&#39;]</title>
<ellipse fill="none" stroke="black" cx="296.74" cy="-214.44" rx="28.68" ry="28.68"/>
<ellipse fill="none" stroke="black" cx="296.74" cy="-214.44" rx="32.7" ry="32.7"/>
<text text-anchor="middle" x="296.74" y="-210.74" font-family="Times,serif" font-size="14.00">[&#39;q5&#39;]</text>
</g>
<!-- [&#39;q4&#39;, &#39;q6&#39;]&#45;&gt;[&#39;q5&#39;] -->
<g id="edge18" class="edge">
<title>[&#39;q4&#39;, &#39;q6&#39;]&#45;&gt;[&#39;q5&#39;]</title>
<path fill="none" stroke="black" d="M296.74,-331.1C296.74,-312.6 296.74,-282.38 296.74,-257.48"/>
<polygon fill="black" stroke="black" points="300.24,-257.18 296.74,-247.18 293.24,-257.18 300.24,-257.18"/>
<text text-anchor="middle" x="307.24" y="-301.98" font-family="Times,serif" font-size="14.00">a, b</text>
</g>
<!-- [] -->
<g id="node5" class="node">
<title>[]</title>
<ellipse fill="none" stroke="black" cx="163.74" cy="-349.18" rx="27" ry="18"/>
<text text-anchor="middle" x="163.74" y="-345.48" font-family="Times,serif" font-size="14.00">[]</text>
</g>
<!-- []&#45;&gt;[] -->
<g id="edge17" class="edge">
<title>[]&#45;&gt;[]</title>
<path fill="none" stroke="black" d="M188.28,-356.93C199.25,-357.67 208.74,-355.09 208.74,-349.18 208.74,-345.21 204.46,-342.74 198.32,-341.78"/>
<polygon fill="black" stroke="black" points="198.39,-338.28 188.28,-341.43 198.15,-345.27 198.39,-338.28"/>
<text text-anchor="middle" x="219.24" y="-345.48" font-family="Times,serif" font-size="14.00">a, b</text>
</g>
<!-- [&#39;q3&#39;, &#39;q4&#39;]&#45;&gt;[&#39;q3&#39;] -->
<g id="edge15" class="edge">
<title>[&#39;q3&#39;, &#39;q4&#39;]&#45;&gt;[&#39;q3&#39;]</title>
<path fill="none" stroke="black" d="M67.82,-367.26C68.48,-372.95 69.18,-379.34 69.74,-385.18 70.92,-397.4 72,-410.94 72.85,-422.45"/>
<polygon fill="black" stroke="black" points="69.38,-423.04 73.6,-432.76 76.37,-422.54 69.38,-423.04"/>
<text text-anchor="middle" x="75.24" y="-388.98" font-family="Times,serif" font-size="14.00">a</text>
</g>
<!-- [&#39;q3&#39;, &#39;q4&#39;, &#39;q5&#39;] -->
<g id="node8" class="node">
<title>[&#39;q3&#39;, &#39;q4&#39;, &#39;q5&#39;]</title>
<ellipse fill="none" stroke="black" cx="65.74" cy="-214.44" rx="61.98" ry="61.98"/>
<ellipse fill="none" stroke="black" cx="65.74" cy="-214.44" rx="65.99" ry="65.99"/>
<text text-anchor="middle" x="65.74" y="-210.74" font-family="Times,serif" font-size="14.00">[&#39;q3&#39;, &#39;q4&#39;, &#39;q5&#39;]</text>
</g>
<!-- [&#39;q3&#39;, &#39;q4&#39;]&#45;&gt;[&#39;q3&#39;, &#39;q4&#39;, &#39;q5&#39;] -->
<g id="edge16" class="edge">
<title>[&#39;q3&#39;, &#39;q4&#39;]&#45;&gt;[&#39;q3&#39;, &#39;q4&#39;, &#39;q5&#39;]</title>
<path fill="none" stroke="black" d="M65.74,-331.1C65.74,-320.36 65.74,-305.67 65.74,-290.37"/>
<polygon fill="black" stroke="black" points="69.24,-290.25 65.74,-280.25 62.24,-290.25 69.24,-290.25"/>
<text text-anchor="middle" x="69.24" y="-301.98" font-family="Times,serif" font-size="14.00">b</text>
</g>
<!-- [&#39;q2&#39;] -->
<g id="node7" class="node">
<title>[&#39;q2&#39;]</title>
<ellipse fill="none" stroke="black" cx="99.74" cy="-552.38" rx="28.7" ry="18"/>
<text text-anchor="middle" x="99.74" y="-548.68" font-family="Times,serif" font-size="14.00">[&#39;q2&#39;]</text>
</g>
<!-- [&#39;q2&#39;]&#45;&gt;[&#39;q3&#39;] -->
<g id="edge3" class="edge">
<title>[&#39;q2&#39;]&#45;&gt;[&#39;q3&#39;]</title>
<path fill="none" stroke="black" d="M95.5,-534.48C91.66,-519.17 85.93,-496.35 81.47,-478.56"/>
<polygon fill="black" stroke="black" points="84.84,-477.6 79.01,-468.76 78.05,-479.31 84.84,-477.6"/>
<text text-anchor="middle" x="95.24" y="-505.18" font-family="Times,serif" font-size="14.00">a</text>
</g>
<!-- [&#39;q1&#39;] -->
<g id="node9" class="node">
<title>[&#39;q1&#39;]</title>
<ellipse fill="none" stroke="black" cx="129.74" cy="-687.12" rx="28.68" ry="28.68"/>
<ellipse fill="none" stroke="black" cx="129.74" cy="-687.12" rx="32.7" ry="32.7"/>
<text text-anchor="middle" x="129.74" y="-683.42" font-family="Times,serif" font-size="14.00">[&#39;q1&#39;]</text>
</g>
<!-- [&#39;q2&#39;]&#45;&gt;[&#39;q1&#39;] -->
<g id="edge4" class="edge">
<title>[&#39;q2&#39;]&#45;&gt;[&#39;q1&#39;]</title>
<path fill="none" stroke="black" d="M103.66,-570.46C104.96,-576.16 106.42,-582.54 107.74,-588.38 111.96,-606.95 116.59,-627.52 120.52,-644.98"/>
<polygon fill="black" stroke="black" points="117.13,-645.87 122.74,-654.86 123.96,-644.34 117.13,-645.87"/>
<text text-anchor="middle" x="115.24" y="-592.18" font-family="Times,serif" font-size="14.00">b</text>
</g>
<!-- [&#39;q3&#39;, &#39;q4&#39;, &#39;q5&#39;]&#45;&gt;[&#39;q3&#39;, &#39;q4&#39;, &#39;q5&#39;] -->
<g id="edge20" class="edge">
<title>[&#39;q3&#39;, &#39;q4&#39;, &#39;q5&#39;]&#45;&gt;[&#39;q3&#39;, &#39;q4&#39;, &#39;q5&#39;]</title>
<path fill="none" stroke="black" d="M129.64,-230.38C141.31,-228.37 149.49,-223.05 149.49,-214.44 149.49,-208.51 145.62,-204.15 139.41,-201.35"/>
<polygon fill="black" stroke="black" points="140.22,-197.94 129.64,-198.49 138.26,-204.66 140.22,-197.94"/>
<text text-anchor="middle" x="152.99" y="-210.74" font-family="Times,serif" font-size="14.00">b</text>
</g>
<!-- [&#39;q3&#39;, &#39;q5&#39;] -->
<g id="node11" class="node">
<title>[&#39;q3&#39;, &#39;q5&#39;]</title>
<ellipse fill="none" stroke="black" cx="65.74" cy="-48.85" rx="44.71" ry="44.71"/>
<ellipse fill="none" stroke="black" cx="65.74" cy="-48.85" rx="48.69" ry="48.69"/>
<text text-anchor="middle" x="65.74" y="-45.15" font-family="Times,serif" font-size="14.00">[&#39;q3&#39;, &#39;q5&#39;]</text>
</g>
<!-- [&#39;q3&#39;, &#39;q4&#39;, &#39;q5&#39;]&#45;&gt;[&#39;q3&#39;, &#39;q5&#39;] -->
<g id="edge19" class="edge">
<title>[&#39;q3&#39;, &#39;q4&#39;, &#39;q5&#39;]&#45;&gt;[&#39;q3&#39;, &#39;q5&#39;]</title>
<path fill="none" stroke="black" d="M53.98,-149.62C53.02,-138.33 52.75,-126.67 53.74,-115.69 54,-112.82 54.33,-109.88 54.7,-106.92"/>
<polygon fill="black" stroke="black" points="58.19,-107.21 56.12,-96.82 51.26,-106.24 58.19,-107.21"/>
<text text-anchor="middle" x="57.24" y="-119.49" font-family="Times,serif" font-size="14.00">a</text>
</g>
<!-- [&#39;q1&#39;]&#45;&gt;[] -->
<g id="edge10" class="edge">
<title>[&#39;q1&#39;]&#45;&gt;[]</title>
<path fill="none" stroke="black" d="M132.94,-654.52C139.59,-588.88 154.78,-438.79 161,-377.25"/>
<polygon fill="black" stroke="black" points="164.5,-377.47 162.03,-367.17 157.54,-376.76 164.5,-377.47"/>
<text text-anchor="middle" x="152.24" y="-505.18" font-family="Times,serif" font-size="14.00">b</text>
</g>
<!-- [&#39;q1&#39;]&#45;&gt;[&#39;q2&#39;] -->
<g id="edge9" class="edge">
<title>[&#39;q1&#39;]&#45;&gt;[&#39;q2&#39;]</title>
<path fill="none" stroke="black" d="M117.98,-656.34C112.37,-640.81 106.16,-621.34 102.74,-603.38 101.37,-596.14 100.58,-588.23 100.13,-580.87"/>
<polygon fill="black" stroke="black" points="103.62,-580.48 99.7,-570.63 96.62,-580.77 103.62,-580.48"/>
<text text-anchor="middle" x="106.24" y="-592.18" font-family="Times,serif" font-size="14.00">a</text>
</g>
<!-- [&#39;q5&#39;]&#45;&gt;[&#39;q5&#39;] -->
<g id="edge21" class="edge">
<title>[&#39;q5&#39;]&#45;&gt;[&#39;q5&#39;]</title>
<path fill="none" stroke="black" d="M324.84,-231.11C336.96,-232.47 347.34,-226.92 347.34,-214.44 347.34,-205.66 342.21,-200.31 334.95,-198.38"/>
<polygon fill="black" stroke="black" points="335.04,-194.88 324.84,-197.76 334.61,-201.86 335.04,-194.88"/>
<text text-anchor="middle" x="357.84" y="-210.74" font-family="Times,serif" font-size="14.00">a, b</text>
</g>
<!-- [&#39;q3&#39;, &#39;q5&#39;]&#45;&gt;[&#39;q3&#39;, &#39;q4&#39;, &#39;q5&#39;] -->
<g id="edge23" class="edge">
<title>[&#39;q3&#39;, &#39;q5&#39;]&#45;&gt;[&#39;q3&#39;, &#39;q4&#39;, &#39;q5&#39;]</title>
<path fill="none" stroke="black" d="M65.74,-97.86C65.74,-110.44 65.74,-124.31 65.74,-137.95"/>
<polygon fill="black" stroke="black" points="62.24,-138.31 65.74,-148.31 69.24,-138.31 62.24,-138.31"/>
<text text-anchor="middle" x="69.24" y="-119.49" font-family="Times,serif" font-size="14.00">b</text>
</g>
<!-- [&#39;q3&#39;, &#39;q5&#39;]&#45;&gt;[&#39;q3&#39;, &#39;q5&#39;] -->
<g id="edge22" class="edge">
<title>[&#39;q3&#39;, &#39;q5&#39;]&#45;&gt;[&#39;q3&#39;, &#39;q5&#39;]</title>
<path fill="none" stroke="black" d="M112.91,-62.48C124.21,-61.41 132.59,-56.87 132.59,-48.85 132.59,-43.46 128.81,-39.64 122.9,-37.39"/>
<polygon fill="black" stroke="black" points="123.42,-33.92 112.91,-35.22 121.93,-40.76 123.42,-33.92"/>
<text text-anchor="middle" x="136.09" y="-45.15" font-family="Times,serif" font-size="14.00">a</text>
</g>
<!-- [&#39;q9&#39;]&#45;&gt;[&#39;q8&#39;] -->
<g id="edge12" class="edge">
<title>[&#39;q9&#39;]&#45;&gt;[&#39;q8&#39;]</title>
<path fill="none" stroke="black" d="M226.68,-482.47C230.62,-495.99 235.19,-511.71 238.98,-524.72"/>
<polygon fill="black" stroke="black" points="235.67,-525.86 241.83,-534.48 242.39,-523.9 235.67,-525.86"/>
<text text-anchor="middle" x="240.24" y="-505.18" font-family="Times,serif" font-size="14.00">b</text>
</g>
<!-- [&#39;q9&#39;]&#45;&gt;[] -->
<g id="edge11" class="edge">
<title>[&#39;q9&#39;]&#45;&gt;[]</title>
<path fill="none" stroke="black" d="M202.56,-421.77C194.7,-407.28 185.18,-389.72 177.54,-375.62"/>
<polygon fill="black" stroke="black" points="180.43,-373.61 172.59,-366.49 174.28,-376.95 180.43,-373.61"/>
<text text-anchor="middle" x="194.24" y="-388.98" font-family="Times,serif" font-size="14.00">a</text>
</g>
<!-- [&#39;q0&#39;, &#39;q1&#39;, &#39;q9&#39;] -->
<g id="node13" class="node">
<title>[&#39;q0&#39;, &#39;q1&#39;, &#39;q9&#39;]</title>
<ellipse fill="aquamarine" stroke="aquamarine" cx="246.74" cy="-687.12" rx="61.98" ry="61.98"/>
<ellipse fill="none" stroke="aquamarine" cx="246.74" cy="-687.12" rx="65.99" ry="65.99"/>
<text text-anchor="middle" x="246.74" y="-683.42" font-family="Times,serif" font-size="14.00">[&#39;q0&#39;, &#39;q1&#39;, &#39;q9&#39;]</text>
</g>
<!-- [&#39;q0&#39;, &#39;q1&#39;, &#39;q9&#39;]&#45;&gt;[&#39;q8&#39;] -->
<g id="edge2" class="edge">
<title>[&#39;q0&#39;, &#39;q1&#39;, &#39;q9&#39;]&#45;&gt;[&#39;q8&#39;]</title>
<path fill="none" stroke="black" d="M246.74,-621.3C246.74,-606.89 246.74,-592.38 246.74,-580.5"/>
<polygon fill="black" stroke="black" points="250.24,-580.39 246.74,-570.39 243.24,-580.39 250.24,-580.39"/>
<text text-anchor="middle" x="250.24" y="-592.18" font-family="Times,serif" font-size="14.00">b</text>
</g>
<!-- [&#39;q0&#39;, &#39;q1&#39;, &#39;q9&#39;]&#45;&gt;[&#39;q2&#39;] -->
<g id="edge1" class="edge">
<title>[&#39;q0&#39;, &#39;q1&#39;, &#39;q9&#39;]&#45;&gt;[&#39;q2&#39;]</title>
<path fill="none" stroke="black" d="M198.2,-642.29C172.95,-619.49 143.25,-592.66 123.12,-574.48"/>
<polygon fill="black" stroke="black" points="125.41,-571.84 115.64,-567.73 120.72,-577.03 125.41,-571.84"/>
<text text-anchor="middle" x="155.24" y="-592.18" font-family="Times,serif" font-size="14.00">a</text>
</g>
</g>
</svg>
