<?xml version="1.0" encoding="UTF-8" standalone="no"?>
<!DOCTYPE svg PUBLIC "-//W3C//DTD SVG 1.1//EN"
 "http://www.w3.org/Graphics/SVG/1.1/DTD/svg11.dtd">
<!-- Generated by graphviz version 3.0.0 (20220226.1711)
 -->
<!-- Pages: 1 -->
<svg width="267pt" height="523pt"
 viewBox="0.00 0.00 267.00 522.99" xmlns="http://www.w3.org/2000/svg" xmlns:xlink="http://www.w3.org/1999/xlink">
<g id="graph0" class="graph" transform="scale(1 1) rotate(0) translate(4 518.99)">
<polygon fill="white" stroke="transparent" points="-4,4 -4,-518.99 263,-518.99 263,4 -4,4"/>
<!-- q3 -->
<g id="node1" class="node">
<title>q3</title>
<ellipse fill="none" stroke="black" cx="27" cy="-208.49" rx="27" ry="18"/>
<text text-anchor="middle" x="27" y="-204.79" font-family="Times,serif" font-size="14.00">q3</text>
</g>
<!-- q3&#45;&gt;q3 -->
<g id="edge6" class="edge">
<title>q3&#45;&gt;q3</title>
<path fill="none" stroke="black" d="M50.61,-217.28C61.97,-218.36 72,-215.43 72,-208.49 72,-203.83 67.47,-200.98 61.06,-199.94"/>
<polygon fill="black" stroke="black" points="60.69,-196.43 50.61,-199.71 60.54,-203.43 60.69,-196.43"/>
<text text-anchor="middle" x="82.5" y="-204.79" font-family="Times,serif" font-size="14.00">a, b</text>
</g>
<!-- q4 -->
<g id="node4" class="node">
<title>q4</title>
<ellipse fill="none" stroke="black" cx="66" cy="-116" rx="27" ry="18"/>
<text text-anchor="middle" x="66" y="-112.3" font-family="Times,serif" font-size="14.00">q4</text>
</g>
<!-- q3&#45;&gt;q4 -->
<g id="edge7" class="edge">
<title>q3&#45;&gt;q4</title>
<path fill="none" stroke="black" d="M34.15,-190.9C39.93,-177.5 48.15,-158.42 54.8,-143"/>
<polygon fill="black" stroke="black" points="58.15,-144.06 58.89,-133.49 51.72,-141.29 58.15,-144.06"/>
<text text-anchor="middle" x="53.5" y="-155.8" font-family="Times,serif" font-size="14.00">b</text>
</g>
<!-- q2 -->
<g id="node2" class="node">
<title>q2</title>
<ellipse fill="none" stroke="black" cx="85" cy="-300.99" rx="27" ry="18"/>
<text text-anchor="middle" x="85" y="-297.29" font-family="Times,serif" font-size="14.00">q2</text>
</g>
<!-- q2&#45;&gt;q3 -->
<g id="edge4" class="edge">
<title>q2&#45;&gt;q3</title>
<path fill="none" stroke="black" d="M74.9,-284.23C66.05,-270.43 53.05,-250.15 42.83,-234.19"/>
<polygon fill="black" stroke="black" points="45.52,-231.91 37.18,-225.38 39.63,-235.69 45.52,-231.91"/>
<text text-anchor="middle" x="65.5" y="-253.79" font-family="Times,serif" font-size="14.00">a</text>
</g>
<!-- q1 -->
<g id="node7" class="node">
<title>q1</title>
<ellipse fill="none" stroke="black" cx="115" cy="-393.49" rx="19.5" ry="19.5"/>
<ellipse fill="none" stroke="black" cx="115" cy="-393.49" rx="23.5" ry="23.5"/>
<text text-anchor="middle" x="115" y="-389.79" font-family="Times,serif" font-size="14.00">q1</text>
</g>
<!-- q2&#45;&gt;q1 -->
<g id="edge5" class="edge">
<title>q2&#45;&gt;q1</title>
<path fill="none" stroke="black" d="M90.56,-318.77C94.53,-330.74 99.99,-347.21 104.74,-361.54"/>
<polygon fill="black" stroke="black" points="101.42,-362.65 107.89,-371.04 108.07,-360.45 101.42,-362.65"/>
<text text-anchor="middle" x="103.5" y="-340.79" font-family="Times,serif" font-size="14.00">b</text>
</g>
<!-- q7 -->
<g id="node3" class="node">
<title>q7</title>
<ellipse fill="none" stroke="black" cx="138" cy="-208.49" rx="27" ry="18"/>
<text text-anchor="middle" x="138" y="-204.79" font-family="Times,serif" font-size="14.00">q7</text>
</g>
<!-- q7&#45;&gt;q7 -->
<g id="edge13" class="edge">
<title>q7&#45;&gt;q7</title>
<path fill="none" stroke="black" d="M161.61,-217.28C172.97,-218.36 183,-215.43 183,-208.49 183,-203.83 178.47,-200.98 172.06,-199.94"/>
<polygon fill="black" stroke="black" points="171.69,-196.43 161.61,-199.71 171.54,-203.43 171.69,-196.43"/>
<text text-anchor="middle" x="186.5" y="-204.79" font-family="Times,serif" font-size="14.00">b</text>
</g>
<!-- q7&#45;&gt;q4 -->
<g id="edge11" class="edge">
<title>q7&#45;&gt;q4</title>
<path fill="none" stroke="black" d="M125.79,-192.14C114.44,-177.89 97.4,-156.46 84.41,-140.13"/>
<polygon fill="black" stroke="black" points="87,-137.77 78.03,-132.12 81.52,-142.13 87,-137.77"/>
<text text-anchor="middle" x="107.5" y="-155.8" font-family="Times,serif" font-size="14.00">a</text>
</g>
<!-- q6 -->
<g id="node5" class="node">
<title>q6</title>
<ellipse fill="none" stroke="black" cx="138" cy="-116" rx="27" ry="18"/>
<text text-anchor="middle" x="138" y="-112.3" font-family="Times,serif" font-size="14.00">q6</text>
</g>
<!-- q7&#45;&gt;q6 -->
<g id="edge12" class="edge">
<title>q7&#45;&gt;q6</title>
<path fill="none" stroke="black" d="M138,-190.47C138,-177.54 138,-159.47 138,-144.49"/>
<polygon fill="black" stroke="black" points="141.5,-144.25 138,-134.25 134.5,-144.25 141.5,-144.25"/>
<text text-anchor="middle" x="141.5" y="-155.8" font-family="Times,serif" font-size="14.00">a</text>
</g>
<!-- q5 -->
<g id="node9" class="node">
<title>q5</title>
<ellipse fill="none" stroke="black" cx="102" cy="-23.5" rx="19.5" ry="19.5"/>
<ellipse fill="none" stroke="black" cx="102" cy="-23.5" rx="23.5" ry="23.5"/>
<text text-anchor="middle" x="102" y="-19.8" font-family="Times,serif" font-size="14.00">q5</text>
</g>
<!-- q4&#45;&gt;q5 -->
<g id="edge8" class="edge">
<title>q4&#45;&gt;q5</title>
<path fill="none" stroke="black" d="M72.6,-98.4C77.39,-86.37 83.99,-69.77 89.73,-55.34"/>
<polygon fill="black" stroke="black" points="93.09,-56.37 93.53,-45.78 86.58,-53.78 93.09,-56.37"/>
<text text-anchor="middle" x="88.5" y="-68.8" font-family="Times,serif" font-size="14.00">b</text>
</g>
<!-- q6&#45;&gt;q5 -->
<g id="edge10" class="edge">
<title>q6&#45;&gt;q5</title>
<path fill="none" stroke="black" d="M131.4,-98.4C126.61,-86.37 120.01,-69.77 114.27,-55.34"/>
<polygon fill="black" stroke="black" points="117.42,-53.78 110.47,-45.78 110.91,-56.37 117.42,-53.78"/>
<text text-anchor="middle" x="126.5" y="-68.8" font-family="Times,serif" font-size="14.00">a</text>
</g>
<!-- q8 -->
<g id="node6" class="node">
<title>q8</title>
<ellipse fill="none" stroke="black" cx="176" cy="-300.99" rx="27" ry="18"/>
<text text-anchor="middle" x="176" y="-297.29" font-family="Times,serif" font-size="14.00">q8</text>
</g>
<!-- q8&#45;&gt;q7 -->
<g id="edge15" class="edge">
<title>q8&#45;&gt;q7</title>
<path fill="none" stroke="black" d="M161.65,-285.42C156.6,-279.52 151.35,-272.36 148,-264.99 144,-256.19 141.6,-245.91 140.15,-236.61"/>
<polygon fill="black" stroke="black" points="143.62,-236.14 138.9,-226.66 136.68,-237.01 143.62,-236.14"/>
<text text-anchor="middle" x="151.5" y="-253.79" font-family="Times,serif" font-size="14.00">b</text>
</g>
<!-- q9 -->
<g id="node8" class="node">
<title>q9</title>
<ellipse fill="none" stroke="black" cx="231" cy="-208.49" rx="19.5" ry="19.5"/>
<ellipse fill="none" stroke="black" cx="231" cy="-208.49" rx="23.5" ry="23.5"/>
<text text-anchor="middle" x="231" y="-204.79" font-family="Times,serif" font-size="14.00">q9</text>
</g>
<!-- q8&#45;&gt;q9 -->
<g id="edge14" class="edge">
<title>q8&#45;&gt;q9</title>
<path fill="none" stroke="black" d="M174.08,-282.84C173.73,-272.72 174.67,-259.98 180,-249.99 181.58,-247.02 192.73,-238.05 204.2,-229.31"/>
<polygon fill="black" stroke="black" points="206.6,-231.88 212.48,-223.07 202.39,-226.29 206.6,-231.88"/>
<text text-anchor="middle" x="183.5" y="-253.79" font-family="Times,serif" font-size="14.00">a</text>
</g>
<!-- q1&#45;&gt;q2 -->
<g id="edge3" class="edge">
<title>q1&#45;&gt;q2</title>
<path fill="none" stroke="black" d="M100.42,-375.03C95.59,-368.25 90.74,-360.16 88,-351.99 85.59,-344.82 84.47,-336.75 84.05,-329.22"/>
<polygon fill="black" stroke="black" points="87.54,-329.01 83.84,-319.08 80.55,-329.15 87.54,-329.01"/>
<text text-anchor="middle" x="91.5" y="-340.79" font-family="Times,serif" font-size="14.00">a</text>
</g>
<!-- q9&#45;&gt;q8 -->
<g id="edge16" class="edge">
<title>q9&#45;&gt;q8</title>
<path fill="none" stroke="black" d="M219.15,-229C210.99,-242.42 200.08,-260.38 191.27,-274.87"/>
<polygon fill="black" stroke="black" points="188.04,-273.45 185.83,-283.81 194.02,-277.09 188.04,-273.45"/>
<text text-anchor="middle" x="208.5" y="-253.79" font-family="Times,serif" font-size="14.00">b</text>
</g>
<!-- q5&#45;&gt;q5 -->
<g id="edge9" class="edge">
<title>q5&#45;&gt;q5</title>
<path fill="none" stroke="black" d="M124.2,-32.32C134.5,-33.28 143.5,-30.34 143.5,-23.5 143.5,-19.11 139.81,-16.33 134.44,-15.15"/>
<polygon fill="black" stroke="black" points="134.35,-11.64 124.2,-14.68 134.03,-18.64 134.35,-11.64"/>
<text text-anchor="middle" x="154" y="-19.8" font-family="Times,serif" font-size="14.00">a, b</text>
</g>
<!-- q0 -->
<g id="node10" class="node">
<title>q0</title>
<ellipse fill="aquamarine" stroke="aquamarine" cx="183" cy="-491.49" rx="19.5" ry="19.5"/>
<ellipse fill="none" stroke="aquamarine" cx="183" cy="-491.49" rx="23.5" ry="23.5"/>
<text text-anchor="middle" x="183" y="-487.79" font-family="Times,serif" font-size="14.00">q0</text>
</g>
<!-- q0&#45;&gt;q1 -->
<g id="edge1" class="edge">
<title>q0&#45;&gt;q1</title>
<path fill="none" stroke="black" d="M169.89,-471.98C159.79,-457.73 145.69,-437.81 134.3,-421.74"/>
<polygon fill="black" stroke="black" points="136.94,-419.41 128.3,-413.27 131.23,-423.45 136.94,-419.41"/>
<text text-anchor="middle" x="173.5" y="-438.79" font-family="Times,serif" font-size="14.00">lambda</text>
</g>
<!-- q0&#45;&gt;q9 -->
<g id="edge2" class="edge">
<title>q0&#45;&gt;q9</title>
<path fill="none" stroke="black" d="M191.83,-469.32C194.12,-463.18 196.4,-456.39 198,-449.99 216.3,-376.98 225.12,-288.8 228.79,-242.14"/>
<polygon fill="black" stroke="black" points="232.29,-242.26 229.56,-232.02 225.31,-241.73 232.29,-242.26"/>
<text text-anchor="middle" x="238.5" y="-340.79" font-family="Times,serif" font-size="14.00">lambda</text>
</g>
</g>
</svg>
